<svg version="1.2" xmlns="http://www.w3.org/2000/svg" viewBox="0 0 1000 1000" width="1000" height="1000">
	<title>209784-P04PJ5-69-ai</title>
	<defs>
		<clipPath clipPathUnits="userSpaceOnUse" id="cp1">
			<path d="m1000 1000h-1000v-1000h1000z"/>
		</clipPath>
	</defs>
	<style>
		tspan { white-space:pre } 
		.s0 { fill: #3e3e42 } 
		.s1 { opacity: .1;fill: #ffffff } 
	</style>
	<g id="BACKGROUND">
		<g id="&lt;Group&gt;">
			<path id="&lt;Path&gt;" class="s0" d="m1000 1000h-1000v-1000h1000z"/>
			<g id="&lt;Clip Group&gt;" clip-path="url(#cp1)" style="opacity: .3">
				<g id="&lt;Group&gt;">
					<path id="&lt;Compound Path&gt;" fill-rule="evenodd" class="s1" d="m154.5 14.8c-0.4 0.6-0.9 1.1-1.5 1.3l-13.4 4.2q-0.4 0.1-0.8 0.1c-1 0-2-0.7-2.4-1.8l-11.5-36.6c-0.2-0.7-0.1-1.4 0.2-1.9 0.3-0.6 0.8-1.1 1.5-1.3l4.3-1.3-2.5-7.9c-2.5 3.4-6.5 5.7-11.1 5.7-4.6 0-8.7-2.2-11.2-5.7l-2.4 7.9 4.3 1.3c0.6 0.2 1.1 0.7 1.5 1.3 0.3 0.5 0.3 1.2 0.1 1.9l-11.5 36.6c-0.3 1.1-1.3 1.8-2.4 1.8q-0.3 0-0.7-0.1l-13.4-4.2c-1.3-0.5-2.1-1.9-1.7-3.2l11.5-36.6c0.4-1.4 1.8-2.1 3.2-1.7l4.3 1.4 4.7-15c0.3-7.3 6.3-13.1 13.7-13.1 7.3 0 13.3 5.8 13.6 13l4.8 15.1 4.3-1.4c1.3-0.4 2.7 0.3 3.1 1.7l11.5 36.6c0.2 0.6 0.2 1.3-0.1 1.9zm-28.5-53.2c0-4.8-3.9-8.7-8.7-8.7-4.8 0-8.7 3.9-8.7 8.7 0 4.8 3.9 8.7 8.7 8.7 4.8 0 8.7-3.9 8.7-8.7z"/>
					<path id="&lt;Path&gt;" class="s1" d="m342.5 207.3h-7.3v-2.6c0-1.4-1.2-2.5-2.5-2.5h-4.1v-0.3c0-1.4-1.1-2.5-2.5-2.5h-7.2c-1.4 0-2.5 1.1-2.5 2.5v5.4h-31.1v-5.4c0-1.4-1.1-2.5-2.5-2.5h-7.2c-1.4 0-2.5 1.1-2.5 2.5v0.3h-4.1c-1.3 0-2.5 1.1-2.5 2.5v2.6h-7.3v11.9h7.3v2.6c0 1.4 1.2 2.5 2.5 2.5h4.1v0.4c0 1.4 1.1 2.5 2.5 2.5h7.2c1.4 0 2.5-1.1 2.5-2.5v-5.5h31.1v5.5c0 1.3 1.1 2.5 2.5 2.5h7.2c1.4 0 2.5-1.2 2.5-2.5v-0.4h4.1c1.3 0 2.5-1.1 2.5-2.5v-2.6h7.3z"/>
					<g id="&lt;Group&gt;">
						<path id="&lt;Path&gt;" class="s1" d="m207.4 94l10.9 10.8c9.9-11.2 12-26.9 6.5-40-2.1 8.9-8.1 19.4-17.4 29.2z"/>
						<path id="&lt;Compound Path&gt;" fill-rule="evenodd" class="s1" d="m202.1 92.2c-9.8 9.9-20 15.7-28 17.7-4.2 1-8.6-0.2-11.6-3.2q0 0 0 0 0-0.1 0-0.1c-3.1-3-4.3-7.4-3.2-11.6 1.9-8 7.8-18.1 17.6-28q0 0 0 0 0 0 0 0c9.9-9.9 20.1-15.7 28.1-17.7 4.1-1 8.5 0.2 11.5 3.2q0.1 0 0.1 0.1 0 0 0 0c3 3 4.3 7.4 3.2 11.6-2 8-7.8 18.1-17.7 28zm-9-12.6l3.7-3.8 1.7 1.7c1 1 2.5 1 3.5 0 1-1 1-2.6 0-3.5q0 0 0 0l-1.6-1.7 3.7-3.7 1.7 1.6c0.9 1 2.5 1 3.5 0 1-1 1-2.6 0-3.5q0 0 0 0l-1.6-1.7 1.7-1.7c1-1 1-2.6 0-3.6-1-0.9-2.5-0.9-3.5 0l-1.8 1.8-1.6-1.6c-1-1-2.6-1-3.6 0-0.9 0.9-0.9 2.5 0 3.5q0 0 0 0l1.7 1.6-3.8 3.8-1.6-1.7c-1-0.9-2.6-0.9-3.6 0-0.9 1-0.9 2.6 0 3.6q0.1 0 0.1 0l1.6 1.6-3.8 3.8-1.6-1.7c-1-0.9-2.6-0.9-3.5 0-1 1-1 2.6 0 3.6q0 0 0 0l1.6 1.6-3.8 3.8-1.6-1.7c-1-0.9-2.6-0.9-3.5 0-1 1-1 2.6 0 3.6q0 0 0 0l1.6 1.6-3.8 3.8-1.6-1.7c-1-0.9-2.6-0.9-3.5 0-1 1-1 2.6 0 3.6l1.6 1.6-1.7 1.8c-1 0.9-1 2.5 0 3.5 0.9 1 2.5 1 3.5 0l1.7-1.8 1.7 1.7c1 0.9 2.6 0.9 3.5 0 1-1 1-2.6 0-3.6q0 0 0 0l-1.6-1.6 3.7-3.8 1.7 1.7c1 1 2.5 1 3.5 0 1-1 1-2.6 0-3.5q0 0 0 0l-1.6-1.7 3.7-3.8 1.7 1.7c1 1 2.5 1 3.5 0 1-1 1-2.6 0-3.5q0 0 0 0z"/>
						<path id="&lt;Path&gt;" class="s1" d="m203.9 97.5c-9.8 9.2-20.3 15.3-29.2 17.4 13.2 5.5 28.8 3.3 40.1-6.5z"/>
						<path id="&lt;Path&gt;" class="s1" d="m175.2 61.7c9.7-9.2 20.3-15.3 29.2-17.3-13.2-5.6-28.9-3.4-40.1 6.5z"/>
						<path id="&lt;Path&gt;" class="s1" d="m171.7 65.3l-10.9-10.9c-9.9 11.2-12 26.9-6.5 40.1 2.1-9 8.1-19.5 17.4-29.2z"/>
					</g>
					<path id="&lt;Compound Path&gt;" fill-rule="evenodd" class="s1" d="m110.5 239.5v48.9c0 8.3-6.8 15.1-15.1 15.1h-7.2c-8.4 0-15.1-6.8-15.1-15.1v-49.1l15.8-33.1q0 0 0-0.1 0.2-0.3 0.4-0.5 0.1-0.1 0.1-0.2 0.3-0.2 0.6-0.5 0.1 0 0.2 0 0.2-0.2 0.6-0.3 0.1 0 0.2-0.1 0.3-0.1 0.8-0.1 0.4 0 0.8 0.1 0.1 0.1 0.2 0.1 0.3 0.1 0.6 0.3 0 0 0.1 0 0.3 0.3 0.6 0.5 0.1 0.1 0.1 0.2 0.2 0.2 0.4 0.5 0 0.1 0.1 0.1zm-8.5-4.2l-7-13.8v13.8zm-13.4-13.8l-7 13.8h7z"/>
					<g id="&lt;Group&gt;">
						<path id="&lt;Compound Path&gt;" fill-rule="evenodd" class="s1" d="m309.7-27.4c0.4 0.5 0.4 1.2 0 1.6l-7.6 7.9c-2.2 2.3-3.8 5.1-4.7 8.1l-1.5 5.4v0.8c0 3.4-2.7 6.1-6.1 6.1h-13.4c-3.4 0-6.2-2.7-6.2-6.1v-0.8l-3.4-28q-0.2-1.9-0.9-3.7l-2.6-7.8c-0.2-0.6 0.2-1.2 0.7-1.4l5.1-1.7c0.6-0.2 1.2 0.1 1.4 0.7l2.2 6.6-1.3-9.2c-0.1-0.6 0.3-1.1 1-1.2l6.5-1c0.6-0.1 1.1 0.4 1.2 1l1.7 11.6v-12.3c0-0.7 0.5-1.2 1.1-1.2h6.6c0.6 0 1.1 0.5 1.1 1.2v11.7l1.4-10.9c0.1-0.7 0.7-1.1 1.3-1l6.5 0.8c0.6 0.1 1.1 0.6 1 1.3l-2.1 20 3.8-3.9c0.4-0.4 1.1-0.4 1.6 0zm-18.8 23v-4.6c0-2.3-1.9-4.2-4.2-4.2h-6.6c-2.3 0-4.2 1.9-4.2 4.2v4.6z"/>
						<path id="&lt;Path&gt;" class="s1" d="m371.6-3.6l-0.5-0.5-17.4-22.3q-1.2-1.5-2-3.2l-3.7-7.4c-0.3-0.6-0.9-0.8-1.5-0.5l-4.8 2.4c-0.5 0.2-0.7 0.9-0.5 1.5l3.1 6.2-5.5-7.4c-0.4-0.5-1.1-0.6-1.6-0.2l-5.2 3.9c-0.5 0.4-0.6 1.1-0.2 1.6l7 9.4-8.7-8.7c-0.5-0.5-1.2-0.5-1.6 0l-4.7 4.6c-0.4 0.5-0.4 1.2 0 1.6l8.3 8.3-8.7-6.7c-0.5-0.4-1.2-0.3-1.6 0.2l-4 5.2c-0.4 0.5-0.3 1.2 0.2 1.5l15.6 12.7h-5.4c-0.6-0.1-1.1 0.4-1.1 1.1l-0.2 7.8c0 0.6 0.5 1.1 1.2 1.1l10.9 0.2c3.2 0.1 6.3 0.9 9 2.5l4.9 2.7 3.6-3.5-3.2-3.3c-1.7-1.6-1.7-4.3 0-5.9l4.6-4.6c1.6-1.7 4.3-1.7 5.9 0l3.3 3.2-14.2 14.1 0.5 0.6c2.4 2.4 6.3 2.4 8.7 0l9.5-9.5c2.4-2.4 2.4-6.3 0-8.7z"/>
					</g>
					<g id="&lt;Group&gt;">
						<path id="&lt;Compound Path&gt;" fill-rule="evenodd" class="s1" d="m642.3-14.5c0.5 0.4 0.5 1.1 0.1 1.6l-7.6 7.8c-2.2 2.3-3.8 5.1-4.7 8.2l-1.5 5.4v0.7c0 3.4-2.7 6.2-6.1 6.2h-13.5c-3.4 0-6.1-2.8-6.1-6.2v-0.7l-3.4-28.1q-0.3-1.9-0.9-3.7l-2.6-7.8c-0.2-0.6 0.1-1.2 0.7-1.4l5-1.7c0.6-0.2 1.3 0.1 1.5 0.7l2.2 6.6-1.3-9.1c-0.1-0.6 0.3-1.2 0.9-1.3l6.5-0.9c0.6-0.1 1.2 0.3 1.3 0.9l1.7 11.7v-12.4c0-0.6 0.5-1.1 1.1-1.1h6.6c0.6 0 1.1 0.5 1.1 1.1v11.7l1.4-10.9c0.1-0.6 0.6-1 1.2-1l6.6 0.9c0.6 0 1 0.6 1 1.2l-2.1 20 3.7-3.8c0.5-0.5 1.2-0.5 1.6-0.1zm-18.8 23v-4.5c0-2.3-1.9-4.2-4.2-4.2h-6.5c-2.3 0-4.2 1.9-4.2 4.2v4.5z"/>
						<path id="&lt;Path&gt;" class="s1" d="m704.3 9.2l-0.5-0.5-17.4-22.3q-1.2-1.5-2.1-3.2l-3.6-7.3c-0.3-0.6-1-0.8-1.5-0.6l-4.8 2.4c-0.5 0.3-0.8 1-0.5 1.5l3.1 6.2-5.5-7.3c-0.4-0.5-1.1-0.6-1.6-0.3l-5.3 4c-0.5 0.4-0.6 1.1-0.2 1.6l7.1 9.4-8.8-8.8c-0.4-0.4-1.1-0.4-1.6 0l-4.6 4.7c-0.5 0.4-0.5 1.1 0 1.6l8.3 8.3-8.7-6.8c-0.5-0.4-1.2-0.3-1.6 0.2l-4.1 5.2c-0.3 0.5-0.3 1.2 0.2 1.6l15.6 12.7-5.3-0.1c-0.6 0-1.2 0.5-1.2 1.1l-0.1 7.8c0 0.7 0.5 1.2 1.1 1.2l10.9 0.2c3.2 0 6.3 0.9 9.1 2.4l4.9 2.8 3.6-3.6-3.3-3.2c-1.6-1.6-1.6-4.3 0-5.9l4.7-4.7c1.6-1.6 4.3-1.6 5.9 0l3.2 3.3-14.1 14.1 0.5 0.5c2.4 2.4 6.3 2.4 8.7 0l9.5-9.5c2.4-2.4 2.4-6.3 0-8.7z"/>
					</g>
					<path id="&lt;Compound Path&gt;" fill-rule="evenodd" class="s1" d="m978.6-1.7c0.5 0.5 0.5 1.2 0.1 1.6l-7.6 7.9c-2.2 2.3-3.8 5.1-4.7 8.1l-1.5 5.4v0.8c0 3.4-2.7 6.1-6.1 6.1h-13.5c-3.4 0-6.1-2.7-6.1-6.1v-0.8l-3.4-28q-0.3-1.9-0.9-3.7l-2.6-7.8c-0.2-0.6 0.1-1.2 0.7-1.4l5-1.7c0.6-0.2 1.3 0.1 1.5 0.7l2.2 6.6-1.3-9.2c-0.1-0.6 0.3-1.1 0.9-1.2l6.5-1c0.6-0.1 1.2 0.4 1.3 1l1.7 11.6v-12.3c0-0.7 0.5-1.2 1.1-1.2h6.6c0.6 0 1.1 0.5 1.1 1.2v11.7l1.4-10.9c0.1-0.7 0.6-1.1 1.2-1l6.6 0.8c0.6 0.1 1 0.6 1 1.3l-2.1 20 3.7-3.9c0.5-0.4 1.2-0.4 1.6 0zm-18.8 23v-4.6c0-2.3-1.9-4.2-4.2-4.2h-6.5c-2.3 0-4.2 1.9-4.2 4.2v4.6z"/>
					<path id="&lt;Path&gt;" class="s1" d="m36.6-4.9l-0.5-0.5-17.4-22.2q-1.2-1.6-2.1-3.3l-3.6-7.3c-0.3-0.6-1-0.8-1.5-0.5l-4.8 2.3c-0.5 0.3-0.8 1-0.5 1.5l3.1 6.2-5.5-7.3c-0.4-0.5-1.1-0.6-1.6-0.3l-5.3 4c-0.5 0.4-0.6 1.1-0.2 1.6l7.1 9.4-8.8-8.8c-0.4-0.4-1.1-0.4-1.6 0l-4.6 4.7c-0.5 0.4-0.5 1.1 0 1.6l8.3 8.3-8.7-6.8c-0.5-0.4-1.2-0.3-1.6 0.2l-4.1 5.2c-0.3 0.5-0.2 1.2 0.2 1.6l15.6 12.7-5.3-0.1c-0.6 0-1.2 0.5-1.2 1.1l-0.1 7.8c0 0.7 0.5 1.2 1.1 1.2l10.9 0.2c3.2 0 6.3 0.9 9.1 2.4l4.9 2.8 3.6-3.6-3.3-3.2c-1.6-1.6-1.6-4.3 0-5.9l4.7-4.7c1.6-1.6 4.3-1.6 5.9 0l3.2 3.3-14.1 14.1 0.5 0.5c2.4 2.4 6.3 2.4 8.7 0l9.5-9.5c2.4-2.4 2.4-6.3 0-8.7z"/>
					<path id="&lt;Compound Path&gt;" fill-rule="evenodd" class="s1" d="m91.8 74.6v57.8c0 1.1-1 2.1-2.1 2.1h-57.8c-1.1 0-2-1-2-2.1v-57.8c0-1.1 0.9-2 2-2h57.8c1.1 0 2.1 0.9 2.1 2zm-13.7 11.3c0-0.5-0.3-1-0.6-1.3-9.6-8.2-23.8-8.2-33.3 0-0.4 0.3-0.6 0.8-0.6 1.3-0.1 0.5 0.1 1 0.5 1.3l8.1 8.2c0.6 0.6 1.6 0.7 2.3 0.1 1.1-0.8 2.4-1.4 3.7-1.7l-2.5-9.7c-0.3-1.2 0.4-2.3 1.5-2.6 1.1-0.2 2.2 0.4 2.5 1.5l2.7 10.6c1.6 0.2 3.3 0.9 4.7 1.9 0.7 0.6 1.7 0.5 2.3-0.1l8.2-8.2c0.3-0.3 0.5-0.8 0.5-1.3z"/>
					<path id="&lt;Compound Path&gt;" fill-rule="evenodd" class="s1" d="m139.5 160.6l-12.6 12.7c-2.4 2.4-5.6 3.8-9.1 3.8-3.4 0-6.6-1.4-9.1-3.8-5-5-5-13.2 0-18.2l12.7-12.6c2.4-2.5 5.6-3.8 9.1-3.8 3.4 0 6.6 1.3 9 3.8 5.1 5 5.1 13.1 0 18.1zm-1.2-9c0-2.1-0.8-4.1-2.3-5.6-1.5-1.5-3.4-2.3-5.5-2.3-2.1 0-4.1 0.8-5.6 2.3l-6.3 6.3 11.1 11.1 6.3-6.3c1.5-1.5 2.3-3.4 2.3-5.5z"/>
					<path id="&lt;Compound Path&gt;" fill-rule="evenodd" class="s1" d="m297 94.6v17.9c0 7-5.7 12.8-12.8 12.8-7.1 0-12.9-5.8-12.9-12.8v-17.9c0-7.1 5.8-12.9 12.9-12.9 7.1 0 12.8 5.8 12.8 12.9zm-20.7 0v8.9h15.7v-8.9c0-4.4-3.5-7.9-7.8-7.9-4.3 0-7.9 3.5-7.9 7.9z"/>
					<path id="&lt;Compound Path&gt;" fill-rule="evenodd" class="s1" d="m229.2-10.7c0 7.1-5.8 12.9-12.9 12.9h-17.9c-7.1 0-12.8-5.8-12.8-12.9 0-7.1 5.7-12.8 12.8-12.8h17.9c7.1 0 12.9 5.7 12.9 12.8zm-5 0c0-4.3-3.6-7.8-7.9-7.8h-8.9v15.7h8.9c4.3 0 7.9-3.5 7.9-7.9z"/>
					<path id="&lt;Compound Path&gt;" fill-rule="evenodd" class="s1" d="m474.2 20.5c-0.3 0.6-0.8 1.1-1.4 1.3l-13.4 4.2q-0.4 0.1-0.8 0.1c-1.1 0-2-0.7-2.4-1.8l-11.5-36.6c-0.2-0.6-0.1-1.3 0.2-1.9 0.3-0.6 0.8-1.1 1.5-1.3l4.3-1.3-2.5-7.9c-2.5 3.5-6.5 5.7-11.1 5.7-4.6 0-8.7-2.2-11.2-5.7l-2.4 7.9 4.3 1.3c0.6 0.2 1.1 0.7 1.5 1.3 0.3 0.6 0.3 1.3 0.1 1.9l-11.5 36.6c-0.3 1.1-1.3 1.8-2.4 1.8q-0.3 0-0.7-0.1l-13.4-4.2c-1.3-0.4-2.1-1.8-1.7-3.2l11.5-36.6c0.4-1.3 1.8-2.1 3.2-1.7l4.3 1.4 4.7-15c0.3-7.3 6.3-13.1 13.7-13.1 7.3 0 13.3 5.8 13.6 13l4.8 15.1 4.3-1.4c1.3-0.4 2.7 0.4 3.1 1.7l11.5 36.6c0.2 0.7 0.2 1.4-0.2 1.9zm-28.4-53.2c0-4.8-3.9-8.7-8.7-8.7-4.8 0-8.7 3.9-8.7 8.7 0 4.8 3.9 8.7 8.7 8.7 4.8 0 8.7-3.9 8.7-8.7z"/>
					<path id="&lt;Path&gt;" class="s1" d="m648.1 176.8h-7.3v-2.6c0-1.4-1.1-2.5-2.5-2.5h-4.1v-0.4c0-1.3-1.1-2.5-2.5-2.5h-7.2c-1.4 0-2.5 1.2-2.5 2.5v5.5h-31v-5.4c0-1.4-1.2-2.5-2.5-2.5h-7.3c-1.4 0-2.5 1.1-2.5 2.5v0.3h-4c-1.4 0-2.5 1.1-2.5 2.5v2.6h-7.4v11.9h7.4v2.6c0 1.4 1.1 2.5 2.5 2.5h4v0.4c0 1.4 1.1 2.5 2.5 2.5h7.3c1.3 0 2.5-1.1 2.5-2.5v-5.5h31v5.4c0 1.4 1.1 2.5 2.5 2.5h7.2c1.4 0 2.5-1.1 2.5-2.5v-0.3h4.1c1.4 0 2.5-1.1 2.5-2.5v-2.6h7.3z"/>
					<path id="&lt;Compound Path&gt;" fill-rule="evenodd" class="s1" d="m548 156v17.3c0 2.5-2 4.5-4.5 4.5h-8.6c-6.2 0-11.4-4.4-12.8-10.2h-15.9c-4.2 0-7.6 3.4-7.6 7.6 0 4.2 3.4 7.6 7.6 7.6h27.2c7.2 0 13.1 5.8 13.1 13 0 7.2-5.9 13.1-13.1 13.1h-37.4c-1.3 5.8-6.5 10.1-12.7 10.1h-8.7c-2.5 0-4.5-2-4.5-4.5v-17.3c0-2.4 2-4.4 4.5-4.4h8.7c6.2 0 11.4 4.3 12.7 10.1h37.4c4 0 7.1-3.2 7.1-7.1 0-3.9-3.1-7.1-7.1-7.1h-27.2c-7.5 0-13.6-6-13.6-13.5 0-7.5 6.1-13.5 13.6-13.5h15.9c1.4-5.8 6.6-10.2 12.8-10.2h8.6c2.5 0 4.5 2 4.5 4.5zm-60.6 49.9c0-2.3-1.8-4.2-4.1-4.2h-4.2v8.4h4.2c2.3 0 4.1-1.9 4.1-4.2zm51.6-45.4h-4.1c-2.3 0-4.2 1.8-4.2 4.1 0 2.4 1.9 4.2 4.2 4.2h4.1z"/>
					<g id="&lt;Group&gt;">
						<path id="&lt;Path&gt;" class="s1" d="m527.2 99.7l10.9 10.9c9.9-11.3 12-26.9 6.5-40.1-2.1 8.9-8.1 19.4-17.4 29.2z"/>
						<path id="&lt;Compound Path&gt;" fill-rule="evenodd" class="s1" d="m521.9 97.9c-9.8 9.9-20 15.7-28 17.7-4.2 1.1-8.6-0.2-11.6-3.2q0 0 0 0 0 0 0 0c-3.1-3.1-4.3-7.5-3.2-11.6 1.9-8 7.8-18.2 17.6-28.1q0 0 0 0 0 0 0 0c9.9-9.9 20.1-15.7 28.1-17.7 4.1-1 8.5 0.2 11.5 3.2q0.1 0.1 0.1 0.1 0 0 0 0c3 3 4.3 7.4 3.2 11.6-2 8-7.8 18.2-17.7 28zm-9-12.6l3.7-3.7 1.7 1.6c1 1 2.5 1 3.5 0 1-1 1-2.5 0-3.5l-1.6-1.7 3.7-3.7 1.7 1.6c0.9 1 2.5 1 3.5 0 1-1 1-2.5 0-3.5q0 0 0 0l-1.6-1.7 1.7-1.7c1-1 1-2.6 0-3.5-1-1-2.5-1-3.5 0l-1.8 1.7-1.6-1.6c-1-1-2.6-1-3.6 0-0.9 1-0.9 2.5 0 3.5q0 0 0 0l1.7 1.7-3.8 3.7-1.6-1.6c-1-1-2.6-1-3.6 0-0.9 0.9-0.9 2.5 0 3.5h0.1l1.6 1.6-3.8 3.8-1.6-1.6c-1-1-2.6-1-3.5 0-1 0.9-1 2.5 0 3.5q0 0 0 0l1.6 1.6-3.8 3.8-1.6-1.6c-1-1-2.6-1-3.5 0-1 0.9-1 2.5 0 3.5l1.6 1.6-3.8 3.8-1.6-1.6c-1-1-2.6-1-3.5 0-1 0.9-1 2.5 0 3.5l1.6 1.6-1.7 1.8c-1 1-1 2.5 0 3.5 0.9 1 2.5 1 3.5 0l1.7-1.7 1.7 1.6c1 1 2.6 1 3.5 0 1-1 1-2.6 0-3.5l-1.6-1.7 3.7-3.7 1.7 1.6c1 1 2.5 1 3.5 0 1-1 1-2.5 0-3.5q0 0 0 0l-1.6-1.7 3.7-3.7 1.7 1.6c1 1 2.5 1 3.5 0 1-1 1-2.5 0-3.5q0 0 0 0z"/>
						<path id="&lt;Path&gt;" class="s1" d="m523.7 103.2c-9.8 9.3-20.3 15.3-29.2 17.4 13.2 5.5 28.8 3.3 40.1-6.5z"/>
						<path id="&lt;Path&gt;" class="s1" d="m495 67.5c9.7-9.3 20.3-15.3 29.2-17.4-13.2-5.6-28.9-3.4-40.1 6.5z"/>
						<path id="&lt;Path&gt;" class="s1" d="m491.5 71l-10.9-10.9c-9.9 11.2-12 26.9-6.5 40.1 2.1-9 8.1-19.5 17.4-29.2z"/>
					</g>
					<path id="&lt;Compound Path&gt;" fill-rule="evenodd" class="s1" d="m430.3 245.2v48.9c0 8.3-6.8 15.1-15.1 15.1h-7.2c-8.4 0-15.1-6.8-15.1-15.1v-49.1l15.8-33.1q0 0 0-0.1 0.2-0.2 0.4-0.5 0.1-0.1 0.1-0.1 0.3-0.3 0.6-0.5 0.1-0.1 0.2-0.1 0.2-0.2 0.6-0.3 0.1 0 0.2 0 0.3-0.1 0.8-0.1 0.4 0 0.8 0.1 0.1 0 0.2 0 0.3 0.1 0.6 0.3 0 0 0.1 0.1 0.3 0.2 0.6 0.5 0.1 0 0.1 0.1 0.2 0.3 0.4 0.5 0 0.1 0.1 0.1zm-8.5-4.1l-7-13.9v13.9zm-13.4-13.9l-7 13.9h7z"/>
					<path id="&lt;Path&gt;" class="s1" d="m557.7 266.5c-0.5-0.5-1.2-0.5-1.6 0l-3.7 3.8 2-20c0.1-0.6-0.4-1.1-1-1.2l-6.5-0.9c-0.6 0-1.2 0.4-1.3 1l-1.4 11v-11.8c0-0.6-0.5-1.1-1.1-1.1h-6.6c-0.6 0-1.1 0.5-1.1 1.1v12.4l-1.6-11.7c-0.1-0.6-0.7-1-1.3-0.9l-6.5 0.9c-0.6 0.1-1.1 0.7-1 1.3l1.3 9.1-2.2-6.6c-0.2-0.6-0.8-0.9-1.4-0.7l-5 1.7c-0.6 0.2-0.9 0.8-0.8 1.4l2.7 7.8q0.6 1.8 0.8 3.8l3.5 28h5.7v-4.6c0-2.3 1.9-4.2 4.2-4.2h6.5c2.3 0 4.2 1.9 4.2 4.2v4.6h5.1l1.5-5.4c0.8-3.1 2.4-5.9 4.6-8.2l7.6-7.8c0.5-0.5 0.4-1.2 0-1.6z"/>
					<path id="&lt;Path&gt;" class="s1" d="m543.4 301.8h-13.4c-3.4 0-6.1-2.8-6.1-6.2v-0.7h25.7v0.7c0 3.4-2.8 6.2-6.2 6.2z"/>
					<path id="&lt;Path&gt;" class="s1" d="m580.7 298.9c0-0.6 0.5-1.1 1.1-1.1l5.4 0.1-15.6-12.7c-0.5-0.4-0.6-1.1-0.2-1.6l4-5.2c0.4-0.5 1.1-0.6 1.6-0.2l8.7 6.8-8.3-8.3c-0.4-0.5-0.4-1.2 0-1.6l4.7-4.7c0.4-0.4 1.1-0.4 1.6 0l8.7 8.8-7-9.4c-0.4-0.5-0.3-1.2 0.2-1.6l5.2-3.9c0.5-0.4 1.2-0.3 1.6 0.2l5.5 7.3-3-6.2c-0.3-0.5-0.1-1.2 0.5-1.5l4.7-2.3c0.6-0.3 1.2-0.1 1.5 0.5l3.7 7.3q0.8 1.7 2 3.3l17.4 22.2-4 4.1-3.3-3.3c-1.6-1.6-4.2-1.6-5.9 0l-4.6 4.7c-1.6 1.6-1.6 4.3 0 5.9l3.2 3.2-3.6 3.6-4.8-2.8c-2.8-1.5-5.9-2.4-9.1-2.4l-10.9-0.2c-0.7 0-1.1-0.5-1.1-1.2z"/>
					<path id="&lt;Path&gt;" class="s1" d="m615.7 313.8l9.5-9.5c2.4-2.4 2.4-6.3 0-8.7l-0.5-0.5-18.2 18.2 0.6 0.5c2.4 2.4 6.2 2.4 8.6 0z"/>
					<path id="&lt;Compound Path&gt;" fill-rule="evenodd" class="s1" d="m411.6 80.4v57.7c0 1.2-1 2.1-2.1 2.1h-57.8c-1.1 0-2-0.9-2-2.1v-57.7c0-1.2 0.9-2.1 2-2.1h57.8c1.1 0 2.1 0.9 2.1 2.1zm-13.7 11.2c0-0.5-0.3-0.9-0.6-1.3-9.6-8.2-23.8-8.2-33.3 0-0.4 0.4-0.6 0.8-0.6 1.3-0.1 0.5 0.1 1 0.5 1.4l8.1 8.1c0.6 0.6 1.6 0.7 2.3 0.1 1.1-0.8 2.4-1.3 3.7-1.7l-2.5-9.7c-0.3-1.1 0.4-2.2 1.5-2.5 1.1-0.3 2.2 0.4 2.5 1.5l2.7 10.5c1.6 0.2 3.3 0.9 4.7 1.9 0.7 0.6 1.7 0.5 2.3-0.1l8.2-8.1c0.3-0.4 0.5-0.9 0.5-1.4z"/>
					<path id="&lt;Compound Path&gt;" fill-rule="evenodd" class="s1" d="m459.3 166.4l-12.6 12.6c-2.4 2.4-5.7 3.8-9.1 3.8-3.4 0-6.6-1.4-9.1-3.8-5-5-5-13.1 0-18.2l12.7-12.6c2.4-2.4 5.6-3.8 9.1-3.8 3.4 0 6.6 1.4 9 3.8 5.1 5 5.1 13.2 0 18.2zm-1.2-9.1c0-2.1-0.8-4.1-2.3-5.6-1.5-1.5-3.4-2.3-5.5-2.3-2.1 0-4.1 0.8-5.6 2.3l-6.3 6.3 11.1 11.2 6.3-6.4c1.5-1.4 2.3-3.4 2.3-5.5z"/>
					<path id="&lt;Compound Path&gt;" fill-rule="evenodd" class="s1" d="m699.6 260l-12.6 12.7c-2.5 2.4-5.7 3.7-9.1 3.7-3.4 0-6.7-1.3-9.1-3.7-5-5-5-13.2 0-18.2l12.6-12.6c2.5-2.5 5.7-3.8 9.1-3.8 3.5 0 6.7 1.3 9.1 3.8 5 5 5 13.1 0 18.1zm-1.2-9.1c0-2.1-0.8-4-2.3-5.5-1.5-1.5-3.5-2.3-5.6-2.3-2.1 0-4 0.8-5.5 2.3l-6.3 6.3 11.1 11.1 6.3-6.3c1.5-1.5 2.3-3.5 2.3-5.6z"/>
					<path id="&lt;Compound Path&gt;" fill-rule="evenodd" class="s1" d="m25.9 250l-12.7 12.7c-2.4 2.4-5.6 3.8-9.1 3.8-3.4 0-6.6-1.4-9.1-3.8-5-5-5-13.2 0-18.2l12.7-12.6c2.4-2.4 5.6-3.8 9.1-3.8 3.4 0 6.6 1.4 9.1 3.8 5 5 5 13.1 0 18.1zm-1.3-9c0-2.1-0.8-4.1-2.3-5.6-1.5-1.5-3.4-2.3-5.5-2.3-2.1 0-4.1 0.8-5.6 2.3l-6.3 6.3 11.1 11.1 6.3-6.3c1.5-1.5 2.3-3.4 2.3-5.5z"/>
					<path id="&lt;Compound Path&gt;" fill-rule="evenodd" class="s1" d="m616.8 100.3v17.9c0 7.1-5.7 12.8-12.8 12.8-7.1 0-12.9-5.7-12.9-12.8v-17.9c0-7.1 5.8-12.9 12.9-12.9 7.1 0 12.8 5.8 12.8 12.9zm-20.7 0v8.9h15.7v-8.9c0-4.3-3.5-7.9-7.8-7.9-4.4 0-7.9 3.6-7.9 7.9z"/>
					<path id="&lt;Compound Path&gt;" fill-rule="evenodd" class="s1" d="m549-5c0 7.1-5.8 12.9-12.9 12.9h-17.9c-7.1 0-12.8-5.8-12.8-12.9 0-7 5.7-12.8 12.8-12.8h17.9c7.1 0 12.9 5.8 12.9 12.8zm-5 0c0-4.3-3.6-7.8-7.9-7.8h-8.9v15.7h8.9c4.3 0 7.9-3.5 7.9-7.9z"/>
					<path id="&lt;Compound Path&gt;" fill-rule="evenodd" class="s1" d="m813.4 30.5c-0.3 0.6-0.8 1.1-1.5 1.3l-13.4 4.2q-0.3 0.1-0.7 0.1c-1.1 0-2.1-0.7-2.4-1.8l-11.5-36.6c-0.2-0.7-0.1-1.4 0.2-1.9 0.3-0.6 0.8-1.1 1.4-1.3l4.3-1.3-2.4-7.9c-2.5 3.4-6.6 5.7-11.2 5.7-4.6 0-8.6-2.2-11.1-5.7l-2.5 7.9 4.3 1.3c0.7 0.2 1.2 0.7 1.5 1.3 0.3 0.5 0.4 1.2 0.2 1.9l-11.5 36.6c-0.3 1.1-1.3 1.8-2.4 1.8q-0.4 0-0.8-0.1l-13.4-4.2c-1.3-0.5-2-1.9-1.6-3.2l11.5-36.6c0.4-1.4 1.8-2.1 3.1-1.7l4.3 1.4 4.7-15c0.4-7.3 6.4-13.1 13.7-13.1 7.4 0 13.3 5.8 13.7 13l4.7 15.1 4.3-1.4c1.4-0.4 2.8 0.3 3.2 1.7l11.5 36.6c0.2 0.6 0.1 1.3-0.2 1.9zm-28.5-53.2c0-4.8-3.9-8.7-8.7-8.7-4.8 0-8.7 3.9-8.7 8.7 0 4.8 3.9 8.7 8.7 8.7 4.8 0 8.7-3.9 8.7-8.7z"/>
					<path id="&lt;Path&gt;" class="s1" d="m1005.4 244.3l-5.2-5.2 1.8-1.9c1-1 1-2.5 0-3.5l-2.8-2.9 0.2-0.2c1-1 1-2.6 0-3.6l-5.1-5.1c-1-1-2.6-1-3.5 0l-3.9 3.9-21.9-22 3.8-3.8c1-0.9 1-2.5 0-3.5l-5.1-5.1c-1-1-2.6-1-3.6 0l-0.2 0.2-2.8-2.9c-1-1-2.6-1-3.6 0l-1.8 1.8-5.2-5.2-8.4 8.5 5.2 5.2-1.9 1.8c-0.9 1-0.9 2.6 0 3.5l2.9 2.9-0.3 0.3c-1 1-1 2.6 0 3.5l5.1 5.2c1 0.9 2.6 0.9 3.6 0l3.9-3.9 21.9 21.9-3.9 3.8c-0.9 1-0.9 2.6 0 3.6l5.2 5.1c0.9 1 2.5 1 3.5 0l0.2-0.3 2.9 2.9c1 1 2.6 1 3.5 0l1.9-1.8 5.2 5.2z"/>
					<g id="&lt;Group&gt;">
						<path id="&lt;Path&gt;" class="s1" d="m866.4 109.7l10.9 10.8c9.8-11.2 12-26.9 6.5-40-2.1 8.9-8.2 19.4-17.4 29.2z"/>
						<path id="&lt;Compound Path&gt;" fill-rule="evenodd" class="s1" d="m861.1 107.9c-9.9 9.9-20 15.7-28 17.7-4.2 1-8.6-0.2-11.6-3.2q0 0-0.1 0 0-0.1 0-0.1c-3-3-4.2-7.4-3.2-11.6 2-8 7.8-18.1 17.7-28q0 0 0 0 0 0 0 0c9.9-9.9 20.1-15.7 28.1-17.7 4.1-1 8.5 0.2 11.5 3.2q0 0 0.1 0.1 0 0 0 0c3 3 4.2 7.4 3.2 11.6-2 8-7.8 18.1-17.7 28zm-9.1-12.6l3.8-3.8 1.6 1.7c1 1 2.6 1 3.6 0 0.9-1 0.9-2.6 0-3.5q0 0 0 0l-1.7-1.7 3.8-3.7 1.6 1.6c1 1 2.6 1 3.6 0 0.9-1 0.9-2.6 0-3.5q0 0 0 0l-1.7-1.7 1.8-1.7c1-1 1-2.6 0-3.6-1-0.9-2.6-0.9-3.5 0l-1.8 1.8-1.7-1.6c-0.9-1-2.5-1-3.5 0-1 0.9-1 2.5 0 3.5q0 0 0 0l1.7 1.6-3.8 3.8-1.7-1.7c-0.9-0.9-2.5-0.9-3.5 0-1 1-1 2.6 0 3.6l1.7 1.6-3.8 3.8-1.7-1.7c-0.9-0.9-2.5-0.9-3.5 0-1 1-1 2.6 0 3.6q0 0 0 0l1.7 1.6-3.8 3.8-1.7-1.7c-0.9-0.9-2.5-0.9-3.5 0-1 1-1 2.6 0 3.6q0 0 0 0l1.7 1.6-3.8 3.8-1.6-1.7c-1-0.9-2.6-0.9-3.6 0-0.9 1-0.9 2.6 0 3.6l1.7 1.6-1.8 1.8c-1 0.9-0.9 2.5 0 3.5 1 1 2.6 1 3.6 0l1.7-1.8 1.7 1.7c0.9 0.9 2.5 0.9 3.5 0 1-1 1-2.6 0-3.6q0 0 0 0l-1.7-1.6 3.8-3.8 1.7 1.7c0.9 1 2.5 1 3.5 0 1-1 1-2.6 0-3.5q0 0 0 0l-1.7-1.7 3.8-3.8 1.7 1.7c0.9 1 2.5 1 3.5 0 1-1 1-2.6 0-3.5q0 0 0-0.1z"/>
						<path id="&lt;Path&gt;" class="s1" d="m862.8 113.2c-9.7 9.2-20.2 15.3-29.1 17.4 13.1 5.5 28.8 3.3 40-6.5z"/>
						<path id="&lt;Path&gt;" class="s1" d="m834.2 77.4c9.7-9.2 20.2-15.3 29.1-17.3-13.1-5.6-28.8-3.4-40 6.5z"/>
						<path id="&lt;Path&gt;" class="s1" d="m830.6 81l-10.9-10.9c-9.8 11.2-12 26.9-6.5 40.1 2.1-9 8.2-19.5 17.4-29.2z"/>
					</g>
					<path id="&lt;Compound Path&gt;" fill-rule="evenodd" class="s1" d="m769.4 255.2v48.9c0 8.3-6.8 15.1-15.1 15.1h-7.2c-8.3 0-15.1-6.8-15.1-15.1v-49.1l15.8-33.1q0.1 0 0.1-0.1 0.2-0.3 0.4-0.5 0-0.1 0.1-0.2 0.2-0.2 0.6-0.5 0.1 0 0.1 0 0.3-0.2 0.6-0.3 0.1 0 0.2-0.1 0.4-0.1 0.8-0.1 0.4 0 0.8 0.1 0.1 0.1 0.2 0.1 0.3 0.1 0.6 0.3 0.1 0 0.2 0 0.3 0.3 0.6 0.5 0 0.1 0.1 0.2 0.2 0.2 0.4 0.5 0 0.1 0 0.1zm-8.4-4.2l-7-13.8v13.8zm-13.5-13.8l-6.9 13.8h6.9z"/>
					<path id="&lt;Path&gt;" class="s1" d="m896.8 276.4c-0.4-0.4-1.1-0.4-1.6 0.1l-3.7 3.8 2.1-20c0-0.6-0.4-1.2-1-1.3l-6.5-0.8c-0.7-0.1-1.2 0.4-1.3 1l-1.4 10.9v-11.7c0-0.6-0.5-1.1-1.1-1.1h-6.6c-0.6 0-1.1 0.5-1.1 1.1v12.4l-1.7-11.7c-0.1-0.6-0.6-1-1.3-0.9l-6.5 0.9c-0.6 0.1-1 0.7-0.9 1.3l1.3 9.1-2.2-6.6c-0.2-0.6-0.9-0.9-1.4-0.7l-5.1 1.7c-0.6 0.2-0.9 0.8-0.7 1.4l2.6 7.8q0.6 1.8 0.9 3.7l3.4 28.1h5.7v-4.6c0-2.3 1.9-4.2 4.2-4.2h6.6c2.3 0 4.2 1.9 4.2 4.2v4.6h5l1.5-5.4c0.9-3.1 2.5-5.9 4.7-8.2l7.6-7.8c0.4-0.5 0.4-1.2 0-1.6z"/>
					<path id="&lt;Path&gt;" class="s1" d="m882.6 311.7h-13.4c-3.4 0-6.2-2.7-6.2-6.1v-0.7h25.7v0.7c0 3.4-2.7 6.1-6.1 6.1z"/>
					<path id="&lt;Path&gt;" class="s1" d="m919.9 308.9c0-0.6 0.5-1.1 1.1-1.1l5.4 0.1-15.7-12.7c-0.4-0.4-0.5-1.1-0.1-1.6l4-5.2c0.4-0.5 1.1-0.6 1.6-0.2l8.7 6.7-8.3-8.3c-0.4-0.4-0.4-1.1 0-1.6l4.6-4.6c0.5-0.4 1.2-0.4 1.6 0l8.8 8.8-7.1-9.5c-0.3-0.5-0.2-1.2 0.3-1.5l5.2-4c0.5-0.3 1.2-0.2 1.6 0.2l5.5 7.4-3.1-6.2c-0.3-0.6 0-1.2 0.5-1.5l4.8-2.4c0.5-0.2 1.2 0 1.5 0.5l3.6 7.4q0.9 1.7 2.1 3.2l17.4 22.3-4.1 4-3.2-3.2c-1.6-1.6-4.3-1.6-5.9 0l-4.6 4.6c-1.7 1.7-1.7 4.3 0 6l3.2 3.2-3.6 3.6-4.9-2.8c-2.7-1.6-5.9-2.4-9-2.5l-11-0.1c-0.6 0-1.1-0.6-1.1-1.2z"/>
					<path id="&lt;Path&gt;" class="s1" d="m954.9 323.8l9.5-9.5c2.4-2.4 2.4-6.3 0-8.7l-0.5-0.5-18.2 18.2 0.5 0.5c2.4 2.4 6.3 2.4 8.7 0z"/>
					<path id="&lt;Compound Path&gt;" fill-rule="evenodd" class="s1" d="m750.7 90.3v57.8c0 1.1-0.9 2.1-2 2.1h-57.8c-1.1 0-2.1-1-2.1-2.1v-57.8c0-1.1 1-2 2.1-2h57.8c1.1 0 2 0.9 2 2zm-13.7 11.3c0-0.5-0.2-1-0.6-1.3-9.5-8.2-23.7-8.2-33.3 0-0.3 0.3-0.6 0.8-0.6 1.3 0 0.5 0.2 1 0.5 1.3l8.2 8.2c0.6 0.6 1.6 0.7 2.3 0.1 1.1-0.8 2.3-1.4 3.6-1.7l-2.4-9.7c-0.3-1.2 0.3-2.3 1.4-2.6 1.2-0.2 2.3 0.4 2.6 1.5l2.6 10.6c1.7 0.2 3.3 0.9 4.8 1.9 0.7 0.6 1.7 0.5 2.3-0.1l8.1-8.2c0.4-0.3 0.6-0.8 0.5-1.3z"/>
					<path id="&lt;Compound Path&gt;" fill-rule="evenodd" class="s1" d="m798.5 176.3l-12.6 12.7c-2.5 2.4-5.7 3.8-9.1 3.8-3.5 0-6.7-1.4-9.1-3.8-5-5-5-13.2 0-18.2l12.6-12.6c2.5-2.5 5.7-3.8 9.1-3.8 3.5 0 6.7 1.3 9.1 3.8 5 5 5 13.1 0 18.1zm-1.2-9c0-2.1-0.8-4.1-2.3-5.6-1.5-1.5-3.5-2.3-5.6-2.3-2.1 0-4 0.8-5.5 2.3l-6.4 6.3 11.2 11.1 6.3-6.3c1.5-1.5 2.3-3.4 2.3-5.5z"/>
					<path id="&lt;Compound Path&gt;" fill-rule="evenodd" class="s1" d="m956 110.3v17.9c0 7-5.8 12.8-12.9 12.8-7 0-12.8-5.8-12.8-12.8v-17.9c0-7.1 5.8-12.9 12.8-12.9 7.1 0 12.9 5.8 12.9 12.9zm-20.7 0v8.9h15.7v-8.9c0-4.4-3.5-7.9-7.9-7.9-4.3 0-7.8 3.5-7.8 7.9z"/>
					<path id="&lt;Compound Path&gt;" fill-rule="evenodd" class="s1" d="m888.1 5c0 7.1-5.7 12.9-12.8 12.9h-17.9c-7.1 0-12.9-5.8-12.9-12.9 0-7.1 5.8-12.8 12.9-12.8h17.9c7.1 0 12.8 5.7 12.8 12.8zm-5 0c0-4.3-3.5-7.8-7.8-7.8h-9v15.7h9c4.3 0 7.8-3.5 7.8-7.9z"/>
					<path id="&lt;Compound Path&gt;" fill-rule="evenodd" class="s1" d="m62.4 392.5c-0.3 0.6-0.8 1.1-1.5 1.3l-13.4 4.2q-0.3 0.1-0.7 0.1c-1.1 0-2.1-0.7-2.4-1.8l-11.5-36.6c-0.2-0.7-0.1-1.4 0.2-1.9 0.3-0.6 0.8-1.1 1.4-1.3l4.4-1.3-2.5-7.9c-2.5 3.4-6.6 5.7-11.2 5.7-4.5 0-8.6-2.2-11.1-5.7l-2.5 7.9 4.3 1.3c0.7 0.2 1.2 0.7 1.5 1.3 0.3 0.5 0.4 1.2 0.2 1.9l-11.5 36.6c-0.3 1.1-1.3 1.8-2.4 1.8q-0.4 0-0.7-0.1l-13.5-4.2c-1.3-0.5-2-1.9-1.6-3.2l11.5-36.6c0.4-1.4 1.8-2.1 3.1-1.7l4.4 1.4 4.6-15c0.4-7.3 6.4-13.1 13.7-13.1 7.4 0 13.3 5.8 13.7 13l4.7 15.1 4.4-1.4c1.3-0.4 2.7 0.3 3.1 1.7l11.5 36.6c0.2 0.6 0.1 1.3-0.2 1.9zm-28.5-53.2c0-4.8-3.9-8.7-8.7-8.7-4.8 0-8.7 3.9-8.7 8.7 0 4.8 3.9 8.7 8.7 8.7 4.8 0 8.7-3.9 8.7-8.7z"/>
					<path id="&lt;Path&gt;" class="s1" d="m253.9 581.8l-5.2-5.2 1.8-1.9c1-0.9 1-2.5 0-3.5l-2.9-2.9 0.3-0.2c0.9-1 0.9-2.6 0-3.6l-5.2-5.1c-0.9-1-2.5-1-3.5 0l-3.8 3.9-22-22 3.8-3.8c1-0.9 1-2.5 0-3.5l-5.1-5.1c-1-1-2.5-1-3.5 0l-0.2 0.2-2.9-2.9c-1-1-2.5-1-3.5 0l-1.9 1.8-5.2-5.2-8.4 8.5 5.2 5.2-1.8 1.8c-1 1-1 2.6 0 3.5l2.9 2.9-0.3 0.3c-1 1-1 2.6 0 3.5l5.1 5.2c1 0.9 2.5 0.9 3.5 0l3.9-3.9 21.9 21.9-3.8 3.9c-1 0.9-1 2.5 0 3.5l5.1 5.1c1 1 2.6 1 3.5 0l0.3-0.3 2.9 2.9c0.9 1 2.5 1 3.5 0l1.8-1.8 5.2 5.2z"/>
					<g id="&lt;Group&gt;">
						<path id="&lt;Path&gt;" class="s1" d="m115.4 471.7l10.9 10.8c9.8-11.2 12-26.9 6.5-40-2.1 8.9-8.2 19.4-17.4 29.2z"/>
						<path id="&lt;Compound Path&gt;" fill-rule="evenodd" class="s1" d="m110.1 469.9c-9.9 9.9-20 15.7-28 17.7-4.2 1-8.6-0.2-11.6-3.2q0 0 0 0-0.1-0.1-0.1-0.1c-3-3-4.2-7.4-3.2-11.6 2-8 7.8-18.1 17.7-28q0 0 0 0 0 0 0 0c9.9-9.9 20.1-15.7 28.1-17.7 4.1-1 8.5 0.2 11.5 3.2q0 0 0.1 0.1 0 0 0 0c3 3 4.2 7.4 3.2 11.6-2 8-7.8 18.1-17.7 28zm-9.1-12.6l3.8-3.8 1.7 1.7c0.9 1 2.5 1 3.5 0 1-1 1-2.6 0-3.5l-1.7-1.7 3.8-3.8 1.6 1.7c1 1 2.6 1 3.6 0 0.9-1 0.9-2.6 0-3.5l-1.7-1.7 1.8-1.7c1-1 1-2.6 0-3.6-1-0.9-2.6-0.9-3.5 0l-1.8 1.8-1.7-1.7c-0.9-0.9-2.5-0.9-3.5 0.1-1 0.9-1 2.5 0 3.5q0 0 0 0l1.7 1.6-3.8 3.8-1.7-1.7c-0.9-0.9-2.5-0.9-3.5 0-1 1-1 2.6 0 3.6q0 0 0 0l1.7 1.6-3.8 3.8-1.6-1.7c-1-0.9-2.6-0.9-3.6 0-0.9 1-0.9 2.6 0 3.6q0 0 0 0l1.7 1.6-3.8 3.8-1.6-1.7c-1-0.9-2.6-0.9-3.6 0-0.9 1-0.9 2.6 0 3.6q0 0 0 0l1.7 1.6-3.8 3.8-1.6-1.7c-1-0.9-2.6-0.9-3.6 0-0.9 1-0.9 2.6 0 3.6q0 0 0 0l1.7 1.6-1.8 1.8c-0.9 0.9-0.9 2.5 0 3.5 1 1 2.6 1 3.6 0l1.7-1.8 1.7 1.7c0.9 0.9 2.5 0.9 3.5 0 1-1 1-2.6 0-3.6l-1.7-1.6 3.8-3.8 1.7 1.7c0.9 1 2.5 1 3.5 0 1-1 1-2.6 0-3.5v-0.1l-1.7-1.6 3.8-3.8 1.7 1.7c0.9 1 2.5 1 3.5 0 1-1 1-2.6 0-3.5v-0.1z"/>
						<path id="&lt;Path&gt;" class="s1" d="m111.9 475.2c-9.8 9.2-20.3 15.3-29.2 17.4 13.1 5.5 28.8 3.3 40-6.5z"/>
						<path id="&lt;Path&gt;" class="s1" d="m83.2 439.4c9.7-9.2 20.2-15.3 29.2-17.3-13.2-5.6-28.9-3.4-40.1 6.5z"/>
						<path id="&lt;Path&gt;" class="s1" d="m79.6 443l-10.8-10.9c-9.9 11.2-12.1 26.9-6.5 40.1 2-9 8.1-19.5 17.3-29.2z"/>
					</g>
					<path id="&lt;Compound Path&gt;" fill-rule="evenodd" class="s1" d="m18.4 617.2v48.9c0 8.3-6.7 15.1-15.1 15.1h-7.2c-8.3 0-15.1-6.8-15.1-15.1v-49.1l15.8-33.1q0.1 0 0.1-0.1 0.2-0.3 0.4-0.5 0-0.1 0.1-0.2 0.3-0.2 0.6-0.5 0.1 0 0.1 0 0.3-0.2 0.6-0.3 0.1 0 0.2-0.1 0.4-0.1 0.8-0.1 0.5 0 0.8 0.1 0.1 0.1 0.2 0.1 0.4 0.1 0.6 0.3 0.1 0 0.2 0 0.3 0.3 0.6 0.5 0 0.1 0.1 0.2 0.2 0.2 0.4 0.5 0 0.1 0 0.1zm-8.4-4.2l-7-13.8v13.8zm-13.5-13.8l-6.9 13.8h6.9z"/>
					<path id="&lt;Path&gt;" class="s1" d="m145.8 638.4c-0.4-0.4-1.1-0.4-1.5 0.1l-3.8 3.8 2.1-20c0-0.6-0.4-1.2-1-1.3l-6.5-0.8c-0.7-0.1-1.2 0.4-1.3 1l-1.4 10.9v-11.7c0-0.6-0.5-1.1-1.1-1.1h-6.6c-0.6 0-1.1 0.5-1.1 1.1v12.4l-1.7-11.7c-0.1-0.6-0.6-1-1.2-0.9l-6.6 0.9c-0.6 0.1-1 0.6-0.9 1.3l1.3 9.1-2.2-6.6c-0.2-0.6-0.8-0.9-1.4-0.7l-5.1 1.7c-0.6 0.2-0.9 0.8-0.7 1.4l2.6 7.8q0.6 1.8 0.9 3.7l3.4 28.1h5.7v-4.6c0-2.3 1.9-4.2 4.2-4.2h6.6c2.3 0 4.2 1.9 4.2 4.2v4.6h5l1.5-5.4c0.9-3.1 2.5-5.9 4.7-8.2l7.6-7.8c0.4-0.5 0.4-1.2 0-1.6z"/>
					<path id="&lt;Path&gt;" class="s1" d="m131.6 673.7h-13.4c-3.4 0-6.2-2.7-6.2-6.1v-0.7h25.7v0.7c0 3.4-2.7 6.1-6.1 6.1z"/>
					<path id="&lt;Path&gt;" class="s1" d="m168.9 670.9c0-0.6 0.5-1.1 1.1-1.1l5.4 0.1-15.6-12.7c-0.5-0.4-0.6-1.1-0.2-1.6l4-5.2c0.4-0.5 1.1-0.6 1.6-0.2l8.7 6.7-8.3-8.3c-0.4-0.4-0.4-1.1 0-1.6l4.7-4.6c0.4-0.4 1.1-0.4 1.5 0l8.8 8.8-7.1-9.5c-0.3-0.5-0.2-1.2 0.3-1.5l5.2-4c0.5-0.3 1.2-0.2 1.6 0.2l5.5 7.4-3.1-6.2c-0.2-0.6 0-1.2 0.5-1.5l4.8-2.4c0.5-0.2 1.2 0 1.5 0.5l3.6 7.4q0.9 1.7 2.1 3.2l17.4 22.3-4.1 4-3.2-3.2c-1.6-1.6-4.3-1.6-5.9 0l-4.6 4.6c-1.7 1.7-1.7 4.3 0 6l3.2 3.2-3.6 3.6-4.9-2.8c-2.7-1.6-5.9-2.4-9-2.5l-11-0.1c-0.6 0-1.1-0.6-1.1-1.2z"/>
					<path id="&lt;Path&gt;" class="s1" d="m203.9 685.8l9.5-9.5c2.4-2.4 2.4-6.3 0-8.7l-0.5-0.5-18.2 18.2 0.5 0.5c2.4 2.4 6.3 2.4 8.7 0z"/>
					<g id="&lt;Group&gt;">
						<path id="&lt;Compound Path&gt;" fill-rule="evenodd" class="s1" d="m550.3 363.2c0.5 0.4 0.5 1.1 0 1.6l-7.6 7.8c-2.2 2.3-3.8 5.1-4.6 8.2l-1.5 5.4v0.7c0 3.4-2.8 6.2-6.2 6.2h-13.4c-3.4 0-6.1-2.8-6.1-6.2v-0.7l-3.5-28.1q-0.2-1.9-0.8-3.7l-2.6-7.8c-0.2-0.6 0.1-1.2 0.7-1.4l5-1.7c0.6-0.2 1.2 0.1 1.4 0.7l2.2 6.6-1.3-9.1c-0.1-0.6 0.4-1.2 1-1.3l6.5-0.9c0.6-0.1 1.2 0.3 1.3 0.9l1.6 11.7v-12.4c0-0.6 0.5-1.1 1.2-1.1h6.5c0.6 0 1.1 0.5 1.1 1.1v11.7l1.4-10.9c0.1-0.6 0.7-1 1.3-1l6.5 0.9c0.7 0 1.1 0.6 1 1.2l-2 20 3.7-3.8c0.4-0.5 1.1-0.5 1.6-0.1zm-18.8 23v-4.5c0-2.3-1.9-4.2-4.2-4.2h-6.5c-2.4 0-4.2 1.9-4.2 4.2v4.5z"/>
						<path id="&lt;Path&gt;" class="s1" d="m612.2 386.9l-0.5-0.5-17.4-22.3q-1.2-1.5-2-3.2l-3.7-7.3c-0.2-0.6-0.9-0.8-1.5-0.6l-4.7 2.4c-0.6 0.3-0.8 1-0.5 1.5l3.1 6.2-5.6-7.3c-0.3-0.5-1-0.6-1.5-0.3l-5.3 4c-0.5 0.4-0.6 1.1-0.2 1.6l7 9.4-8.7-8.8c-0.5-0.4-1.2-0.4-1.6 0l-4.7 4.7c-0.4 0.4-0.4 1.1 0 1.6l8.4 8.3-8.8-6.8c-0.5-0.4-1.2-0.3-1.6 0.2l-4 5.2c-0.4 0.5-0.3 1.2 0.2 1.6l15.6 12.7-5.4-0.1c-0.6 0-1.1 0.5-1.1 1.1l-0.1 7.8c0 0.7 0.5 1.2 1.1 1.2l10.9 0.2c3.2 0 6.3 0.9 9.1 2.4l4.9 2.8 3.5-3.6-3.2-3.2c-1.6-1.6-1.6-4.3 0-5.9l4.6-4.7c1.7-1.6 4.3-1.6 6 0l3.2 3.3-14.1 14.1 0.5 0.5c2.4 2.4 6.3 2.4 8.7 0l9.4-9.5c2.4-2.4 2.4-6.3 0-8.7z"/>
					</g>
					<path id="&lt;Compound Path&gt;" fill-rule="evenodd" class="s1" d="m886.6 376c0.5 0.5 0.5 1.2 0 1.6l-7.6 7.9c-2.2 2.3-3.8 5.1-4.6 8.1l-1.5 5.4v0.8c0 3.4-2.8 6.1-6.2 6.1h-13.4c-3.4 0-6.1-2.7-6.1-6.1v-0.8l-3.5-28q-0.2-1.9-0.8-3.7l-2.6-7.8c-0.2-0.6 0.1-1.3 0.7-1.4l5-1.7c0.6-0.2 1.2 0.1 1.4 0.7l2.2 6.5-1.3-9.1c0-0.6 0.4-1.2 1-1.2l6.5-1c0.6-0.1 1.2 0.4 1.3 1l1.6 11.6v-12.3c0-0.7 0.5-1.2 1.2-1.2h6.5c0.6 0 1.1 0.5 1.1 1.2v11.7l1.4-10.9c0.1-0.7 0.7-1.1 1.3-1l6.6 0.8c0.6 0.1 1 0.6 0.9 1.2l-2 20.1 3.7-3.9c0.4-0.4 1.1-0.4 1.6 0zm-18.8 23v-4.6c0-2.3-1.9-4.2-4.2-4.2h-6.5c-2.4 0-4.2 1.9-4.2 4.2v4.6z"/>
					<path id="&lt;Path&gt;" class="s1" d="m-55.4 372.8l-0.6-0.5-17.4-22.3q-1.1-1.5-2-3.2l-3.7-7.3c-0.2-0.6-0.9-0.8-1.5-0.5l-4.7 2.3c-0.6 0.3-0.8 1-0.5 1.5l3.1 6.2-5.6-7.3c-0.3-0.5-1-0.6-1.5-0.3l-5.3 4c-0.5 0.4-0.6 1.1-0.2 1.6l7 9.4-8.7-8.8c-0.5-0.4-1.2-0.4-1.6 0l-4.6 4.7c-0.5 0.4-0.5 1.1 0 1.6l8.3 8.3-8.8-6.8c-0.5-0.4-1.2-0.3-1.6 0.2l-4 5.2c-0.4 0.5-0.3 1.2 0.2 1.6l15.6 12.7-5.4-0.1c-0.6 0-1.1 0.5-1.1 1.1l-0.1 7.8c0 0.7 0.5 1.2 1.1 1.2l10.9 0.2c3.2 0 6.3 0.9 9.1 2.4l4.9 2.8 3.5-3.6-3.2-3.2c-1.6-1.6-1.6-4.3 0-5.9l4.6-4.7c1.7-1.6 4.3-1.6 6 0l3.2 3.3-14.1 14.1 0.5 0.5c2.4 2.4 6.3 2.4 8.7 0l9.5-9.5c2.3-2.4 2.3-6.3 0-8.7z"/>
					<path id="&lt;Compound Path&gt;" fill-rule="evenodd" class="s1" d="m-0.3 452.3v57.8c0 1.1-0.9 2.1-2 2.1h-57.8c-1.1 0-2.1-1-2.1-2.1v-57.8c0-1.1 1-2 2.1-2h57.8c1.1 0 2 0.9 2 2zm-13.7 11.3c0-0.5-0.2-1-0.6-1.3-9.5-8.2-23.7-8.2-33.2 0-0.4 0.3-0.7 0.8-0.7 1.3 0 0.5 0.2 1 0.6 1.3l8.1 8.2c0.6 0.6 1.6 0.7 2.3 0.1 1.1-0.8 2.4-1.4 3.6-1.7l-2.4-9.7c-0.3-1.2 0.3-2.3 1.5-2.6 1.1-0.2 2.2 0.4 2.5 1.5l2.6 10.6c1.7 0.2 3.4 0.9 4.8 1.9 0.7 0.6 1.7 0.5 2.3-0.1l8.1-8.2c0.4-0.3 0.6-0.8 0.5-1.3z"/>
					<path id="&lt;Compound Path&gt;" fill-rule="evenodd" class="s1" d="m47.5 538.3l-12.6 12.7c-2.5 2.4-5.7 3.8-9.1 3.8-3.4 0-6.7-1.4-9.1-3.8-5-5-5-13.2 0-18.2l12.6-12.6c2.5-2.5 5.7-3.8 9.1-3.8 3.5 0 6.7 1.3 9.1 3.8 5 5 5 13.1 0 18.1zm-1.2-9c0-2.1-0.8-4.1-2.3-5.6-1.5-1.5-3.5-2.3-5.6-2.3-2.1 0-4 0.8-5.5 2.3l-6.3 6.3 11.1 11.1 6.3-6.3c1.5-1.5 2.3-3.4 2.3-5.5z"/>
					<path id="&lt;Compound Path&gt;" fill-rule="evenodd" class="s1" d="m1052 473.5c-0.3 0.6-0.8 1.1-1.5 1.3l-13.4 4.2q-0.3 0.1-0.7 0.1c-1.1 0-2.1-0.7-2.4-1.8l-11.5-36.6c-0.2-0.7-0.1-1.3 0.2-1.9 0.3-0.6 0.8-1.1 1.4-1.3l4.4-1.3-2.5-7.9c-2.5 3.5-6.6 5.7-11.2 5.7-4.5 0-8.6-2.2-11.1-5.7l-2.5 7.9 4.4 1.3c0.6 0.2 1.1 0.7 1.4 1.3 0.3 0.6 0.4 1.2 0.2 1.9l-11.5 36.6c-0.3 1.1-1.3 1.8-2.4 1.8q-0.4 0-0.7-0.1l-13.5-4.2c-1.3-0.5-2-1.9-1.6-3.2l11.5-36.6c0.4-1.4 1.8-2.1 3.1-1.7l4.4 1.4 4.6-15c0.4-7.3 6.4-13.1 13.7-13.1 7.4 0 13.3 5.8 13.7 13l4.7 15.1 4.4-1.4c1.3-0.4 2.7 0.3 3.1 1.7l11.5 36.6c0.2 0.7 0.1 1.3-0.2 1.9zm-28.5-53.2c0-4.8-3.9-8.7-8.7-8.7-4.8 0-8.7 3.9-8.7 8.7 0 4.8 3.9 8.7 8.7 8.7 4.8 0 8.7-3.9 8.7-8.7z"/>
					<path id="&lt;Compound Path&gt;" fill-rule="evenodd" class="s1" d="m954.6 668.1v48.9c0 8.3-6.7 15.1-15 15.1h-7.3c-8.3 0-15-6.8-15-15.1v-49.1l15.7-33.1q0.1 0 0.1 0 0.2-0.3 0.4-0.6 0-0.1 0.1-0.1 0.3-0.3 0.6-0.5 0.1-0.1 0.1-0.1 0.3-0.2 0.6-0.3 0.1 0 0.2 0 0.4-0.1 0.8-0.1 0.5 0 0.9 0.1 0.1 0 0.2 0 0.3 0.1 0.5 0.3 0.1 0 0.2 0.1 0.3 0.2 0.6 0.5 0.1 0 0.1 0.1 0.2 0.3 0.4 0.6 0 0 0.1 0zm-8.5-4.1l-7-13.9v13.9zm-13.5-13.9l-6.9 13.9h6.9z"/>
					<path id="&lt;Path&gt;" class="s1" d="m934.2 453.8l-0.6-0.5-17.4-22.2q-1.1-1.6-2-3.3l-3.7-7.3c-0.2-0.6-0.9-0.8-1.5-0.5l-4.7 2.3c-0.6 0.3-0.8 1-0.5 1.5l3.1 6.2-5.6-7.3c-0.3-0.5-1-0.6-1.5-0.2l-5.3 3.9c-0.5 0.4-0.6 1.1-0.2 1.6l7 9.4-8.7-8.8c-0.5-0.4-1.2-0.4-1.6 0l-4.6 4.7c-0.5 0.4-0.5 1.1 0 1.6l8.3 8.3-8.8-6.8c-0.5-0.4-1.2-0.3-1.5 0.2l-4.1 5.2c-0.4 0.5-0.3 1.2 0.2 1.6l15.6 12.7-5.3-0.1c-0.7 0-1.2 0.5-1.2 1.1l-0.1 7.9c0 0.6 0.5 1.1 1.1 1.1l10.9 0.2c3.2 0 6.3 0.9 9.1 2.4l4.9 2.8 3.5-3.6-3.2-3.2c-1.6-1.6-1.6-4.3 0-5.9l4.6-4.7c1.7-1.6 4.3-1.6 6 0l3.2 3.3-14.1 14.1 0.5 0.5c2.4 2.4 6.3 2.4 8.7 0l9.5-9.5c2.3-2.4 2.3-6.3 0-8.7z"/>
					<path id="&lt;Compound Path&gt;" fill-rule="evenodd" class="s1" d="m989.3 533.3v57.8c0 1.1-0.9 2.1-2 2.1h-57.8c-1.1 0-2.1-1-2.1-2.1v-57.8c0-1.1 1-2 2.1-2h57.8c1.1 0 2 0.9 2 2zm-13.6 11.3c-0.1-0.5-0.3-1-0.7-1.3-9.5-8.2-23.7-8.2-33.2 0-0.4 0.3-0.6 0.8-0.7 1.3 0 0.5 0.2 1 0.6 1.4l8.1 8.1c0.6 0.6 1.6 0.7 2.3 0.1 1.1-0.8 2.4-1.3 3.6-1.7l-2.4-9.7c-0.3-1.1 0.4-2.3 1.5-2.5 1.1-0.3 2.2 0.3 2.5 1.4l2.6 10.6c1.7 0.2 3.4 0.9 4.8 1.9 0.7 0.6 1.7 0.5 2.3-0.1l8.1-8.1c0.4-0.4 0.6-0.9 0.6-1.4z"/>
					<path id="&lt;Compound Path&gt;" fill-rule="evenodd" class="s1" d="m1037.1 619.4l-12.6 12.6c-2.5 2.4-5.7 3.8-9.1 3.8-3.4 0-6.7-1.4-9.1-3.8-5-5-5-13.2 0-18.2l12.6-12.6c2.5-2.4 5.7-3.8 9.1-3.8 3.5 0 6.7 1.4 9.1 3.8 5 5 5 13.1 0 18.2zm-1.2-9.1c0-2.1-0.8-4.1-2.3-5.6-1.5-1.5-3.5-2.3-5.6-2.3-2.1 0-4 0.8-5.5 2.3l-6.3 6.3 11.1 11.1 6.3-6.3c1.5-1.5 2.3-3.4 2.3-5.5z"/>
					<path id="&lt;Compound Path&gt;" fill-rule="evenodd" class="s1" d="m217.8 420.3v17.9c0 7.1-5.8 12.8-12.8 12.8-7.1 0-12.9-5.7-12.9-12.8v-17.9c0-7.1 5.8-12.8 12.9-12.8 7 0 12.8 5.7 12.8 12.8zm-20.7 0v8.9h15.7v-8.9c0-4.3-3.5-7.9-7.8-7.9-4.4 0-7.9 3.6-7.9 7.9z"/>
					<path id="&lt;Compound Path&gt;" fill-rule="evenodd" class="s1" d="m137.1 367c0 7.1-5.7 12.9-12.8 12.9h-17.9c-7.1 0-12.9-5.8-12.9-12.9 0-7.1 5.8-12.8 12.9-12.8h17.9c7.1 0 12.8 5.7 12.8 12.8zm-5 0c0-4.3-3.5-7.8-7.8-7.8h-9v15.7h9c4.3 0 7.8-3.6 7.8-7.9z"/>
					<path id="&lt;Compound Path&gt;" fill-rule="evenodd" class="s1" d="m988 377.5c0 7.1-5.8 12.9-12.9 12.9h-17.8c-7.1 0-12.9-5.8-12.9-12.9 0-7.1 5.8-12.8 12.9-12.8h17.8c7.1 0 12.9 5.7 12.9 12.8zm-5 0c0-4.3-3.5-7.8-7.9-7.8h-8.9v15.7h8.9c4.4 0 7.9-3.5 7.9-7.9z"/>
					<path id="&lt;Compound Path&gt;" fill-rule="evenodd" class="s1" d="m382.2 398.2c-0.3 0.6-0.8 1.1-1.5 1.3l-13.4 4.2q-0.3 0.1-0.7 0.1c-1.1 0-2.1-0.7-2.4-1.8l-11.5-36.6c-0.2-0.6-0.1-1.3 0.2-1.9 0.3-0.6 0.8-1.1 1.4-1.3l4.4-1.3-2.5-7.9c-2.5 3.5-6.6 5.7-11.2 5.7-4.5 0-8.6-2.2-11.1-5.7l-2.5 7.9 4.3 1.3c0.7 0.2 1.2 0.7 1.5 1.3 0.3 0.6 0.4 1.3 0.2 1.9l-11.5 36.6c-0.3 1.1-1.3 1.8-2.4 1.8q-0.4 0-0.7-0.1l-13.5-4.2c-1.3-0.4-2-1.8-1.6-3.2l11.5-36.6c0.4-1.3 1.8-2.1 3.1-1.7l4.4 1.4 4.6-15c0.4-7.3 6.4-13.1 13.7-13.1 7.4 0 13.3 5.8 13.7 13l4.7 15.1 4.3-1.4c1.4-0.4 2.8 0.4 3.2 1.7l11.5 36.6c0.2 0.7 0.1 1.4-0.2 1.9zm-28.5-53.2c0-4.8-3.9-8.7-8.7-8.7-4.8 0-8.7 3.9-8.7 8.7 0 4.8 3.9 8.7 8.7 8.7 4.8 0 8.7-3.9 8.7-8.7z"/>
					<path id="&lt;Path&gt;" class="s1" d="m556.1 554.5h-7.4v-2.6c0-1.4-1.1-2.5-2.5-2.5h-4v-0.4c0-1.3-1.1-2.5-2.5-2.5h-7.3c-1.3 0-2.5 1.2-2.5 2.5v5.5h-31v-5.4c0-1.4-1.1-2.5-2.5-2.5h-7.2c-1.4 0-2.5 1.1-2.5 2.5v0.3h-4.1c-1.4 0-2.5 1.1-2.5 2.5v2.6h-7.3v11.9h7.3v2.6c0 1.4 1.1 2.5 2.5 2.5h4.1v0.4c0 1.4 1.1 2.5 2.5 2.5h7.2c1.4 0 2.5-1.1 2.5-2.5v-5.5h31v5.4c0 1.4 1.2 2.5 2.5 2.5h7.3c1.4 0 2.5-1.1 2.5-2.5v-0.3h4c1.4 0 2.5-1.1 2.5-2.5v-2.6h7.4z"/>
					<path id="&lt;Compound Path&gt;" fill-rule="evenodd" class="s1" d="m455.9 533.7v17.3c0 2.5-2 4.5-4.4 4.5h-8.7c-6.2 0-11.4-4.4-12.7-10.2h-16c-4.1 0-7.5 3.4-7.5 7.6 0 4.2 3.4 7.6 7.5 7.6h27.3c7.2 0 13.1 5.8 13.1 13 0 7.2-5.9 13.1-13.1 13.1h-37.4c-1.4 5.8-6.6 10.1-12.8 10.1h-8.6c-2.5 0-4.5-2-4.5-4.5v-17.3c0-2.4 2-4.4 4.5-4.4h8.6c6.2 0 11.4 4.3 12.8 10.1h37.4c3.9 0 7.1-3.2 7.1-7.1 0-3.9-3.2-7.1-7.1-7.1h-27.3c-7.4 0-13.5-6-13.5-13.5 0-7.5 6.1-13.5 13.5-13.5h16c1.3-5.8 6.5-10.2 12.7-10.2h8.7c2.4 0 4.4 2 4.4 4.5zm-60.5 49.9c0-2.3-1.9-4.2-4.2-4.2h-4.2v8.4h4.2c2.3 0 4.2-1.9 4.2-4.2zm51.6-45.4h-4.2c-2.3 0-4.1 1.8-4.1 4.1 0 2.4 1.8 4.2 4.1 4.2h4.2z"/>
					<g id="&lt;Group&gt;">
						<path id="&lt;Path&gt;" class="s1" d="m431.7 445.2l10.8-10.9c-11.2-9.9-26.9-12.1-40-6.5 8.9 2.1 19.4 8.1 29.2 17.4z"/>
						<path id="&lt;Compound Path&gt;" fill-rule="evenodd" class="s1" d="m429.9 450.4c9.9 9.9 15.7 20.1 17.7 28.1 1 4.1-0.2 8.5-3.2 11.6q0 0 0 0 0 0-0.1 0c-3 3-7.4 4.3-11.6 3.2-8-2-18.1-7.8-28-17.7q0 0 0 0 0 0 0 0c-9.9-9.9-15.7-20-17.7-28-1-4.2 0.2-8.6 3.2-11.6q0 0 0.1 0 0 0 0 0c3-3.1 7.4-4.3 11.6-3.3 8 2 18.1 7.9 28 17.7zm-12.6 9.1l-3.8-3.8 1.7-1.6c1-1 1-2.6 0-3.5-1-1-2.6-1-3.5 0l-1.7 1.6-3.7-3.8 1.6-1.6c1-1 1-2.6 0-3.5-1-1-2.6-1-3.5 0q0 0 0 0l-1.7 1.6-1.7-1.7c-1-1-2.6-1-3.6 0-0.9 0.9-0.9 2.5 0 3.5l1.8 1.8-1.6 1.6c-1 1-1 2.6 0 3.5 0.9 1 2.5 1 3.5 0l1.6-1.6 3.8 3.7-1.7 1.7c-0.9 1-0.9 2.5 0.1 3.5 0.9 1 2.5 1 3.5 0l1.6-1.6 3.8 3.7-1.7 1.7c-0.9 1-0.9 2.5 0 3.5 1 1 2.6 1 3.6 0l1.6-1.6 3.8 3.7-1.7 1.7c-0.9 1-0.9 2.5 0 3.5 1 1 2.6 1 3.6 0l1.6-1.6 3.8 3.7-1.7 1.7c-0.9 1-0.9 2.5 0 3.5 1 1 2.6 1 3.6 0l1.6-1.6 1.8 1.7c0.9 1 2.5 1 3.5 0 1-1 1-2.5 0-3.5l-1.8-1.8 1.7-1.6c1-1 1-2.6 0-3.6-1-0.9-2.6-0.9-3.6 0l-1.6 1.7-3.8-3.8 1.7-1.6c1-1 1-2.6 0-3.5-1-1-2.6-1-3.5 0q0 0 0 0l-1.7 1.6-3.8-3.8 1.7-1.6c1-1 1-2.6 0-3.5-1-1-2.6-1-3.5 0z"/>
						<path id="&lt;Path&gt;" class="s1" d="m435.2 448.7c9.2 9.7 15.3 20.2 17.4 29.2 5.5-13.2 3.3-28.9-6.5-40.1z"/>
						<path id="&lt;Path&gt;" class="s1" d="m399.4 477.4c-9.2-9.8-15.3-20.3-17.3-29.2-5.6 13.2-3.4 28.8 6.5 40.1z"/>
						<path id="&lt;Path&gt;" class="s1" d="m403 480.9l-10.9 10.9c11.2 9.8 26.9 12 40.1 6.5-9-2.1-19.5-8.1-29.2-17.4z"/>
					</g>
					<path id="&lt;Compound Path&gt;" fill-rule="evenodd" class="s1" d="m319.9 629.2l-16.9 45.9c-2.9 7.8-11.6 11.9-19.4 9l-6.8-2.5c-7.8-2.9-11.8-11.6-8.9-19.4l17-46 26.2-25.6q0.1 0 0.1-0.1 0.3-0.2 0.6-0.4 0 0 0.1 0 0.4-0.2 0.8-0.3 0 0 0.1 0 0.3-0.1 0.7-0.1 0.1 0 0.2 0 0.4 0.1 0.8 0.2 0.4 0.2 0.7 0.4 0.1 0.1 0.2 0.1 0.2 0.2 0.4 0.5 0.1 0 0.1 0.1 0.3 0.3 0.4 0.7 0.1 0.1 0.1 0.1 0.1 0.4 0.2 0.7 0 0 0 0.1zm-6.5-6.9l-1.7-15.4-4.8 13zm-7.9-17.6l-11.3 10.6 6.5 2.4z"/>
					<path id="&lt;Path&gt;" class="s1" d="m465.6 644.2c-0.4-0.5-1.1-0.5-1.5 0l-3.8 3.8 2.1-20c0-0.6-0.4-1.1-1-1.2l-6.5-0.9c-0.7 0-1.2 0.4-1.3 1l-1.4 11v-11.8c0-0.6-0.5-1.1-1.1-1.1h-6.6c-0.6 0-1.1 0.5-1.1 1.1v12.4l-1.7-11.7c-0.1-0.6-0.6-1-1.3-0.9l-6.5 0.9c-0.6 0.1-1 0.7-0.9 1.3l1.3 9.1-2.2-6.6c-0.2-0.6-0.9-0.9-1.4-0.7l-5.1 1.7c-0.6 0.2-0.9 0.8-0.7 1.4l2.6 7.8q0.6 1.8 0.9 3.8l3.4 28h5.7v-4.6c0-2.3 1.9-4.2 4.2-4.2h6.6c2.3 0 4.2 1.9 4.2 4.2v4.6h5l1.5-5.4c0.9-3.1 2.5-5.9 4.7-8.2l7.6-7.8c0.4-0.5 0.4-1.2 0-1.6z"/>
					<path id="&lt;Path&gt;" class="s1" d="m451.4 679.5h-13.4c-3.4 0-6.2-2.8-6.2-6.2v-0.7h25.7v0.7c0 3.4-2.7 6.2-6.1 6.2z"/>
					<path id="&lt;Path&gt;" class="s1" d="m488.7 676.6c0-0.6 0.5-1.1 1.1-1.1l5.4 0.1-15.7-12.7c-0.4-0.4-0.5-1.1-0.1-1.6l4-5.2c0.4-0.5 1.1-0.6 1.6-0.2l8.7 6.8-8.3-8.3c-0.4-0.5-0.4-1.2 0-1.6l4.7-4.7c0.4-0.4 1.1-0.4 1.5 0l8.8 8.8-7.1-9.4c-0.3-0.5-0.2-1.2 0.3-1.6l5.2-4c0.5-0.3 1.2-0.2 1.6 0.3l5.5 7.3-3.1-6.2c-0.3-0.5 0-1.2 0.5-1.5l4.8-2.3c0.5-0.3 1.2-0.1 1.5 0.5l3.6 7.3q0.9 1.7 2.1 3.3l17.4 22.2-4.1 4.1-3.2-3.3c-1.6-1.6-4.3-1.6-5.9 0l-4.6 4.7c-1.7 1.6-1.7 4.3 0 5.9l3.2 3.2-3.6 3.6-4.9-2.8c-2.7-1.5-5.9-2.4-9-2.4l-11-0.2c-0.6 0-1.1-0.5-1.1-1.2z"/>
					<path id="&lt;Path&gt;" class="s1" d="m523.7 691.5l9.5-9.5c2.4-2.4 2.4-6.3 0-8.7l-0.5-0.5-18.2 18.2 0.5 0.5c2.4 2.4 6.3 2.4 8.7 0z"/>
					<path id="&lt;Compound Path&gt;" fill-rule="evenodd" class="s1" d="m319.5 458v57.8c0 1.2-0.9 2.1-2 2.1h-57.8c-1.1 0-2.1-0.9-2.1-2.1v-57.8c0-1.1 1-2 2.1-2h57.8c1.1 0 2 0.9 2 2zm-13.7 11.3c0-0.5-0.2-0.9-0.6-1.3-9.5-8.2-23.7-8.2-33.2 0-0.4 0.4-0.7 0.8-0.7 1.3 0 0.5 0.2 1 0.6 1.4l8.1 8.1c0.6 0.6 1.6 0.7 2.3 0.1 1.1-0.8 2.4-1.3 3.6-1.7l-2.4-9.7c-0.3-1.1 0.3-2.3 1.5-2.5 1.1-0.3 2.2 0.4 2.5 1.5l2.6 10.5c1.7 0.2 3.4 0.9 4.8 1.9 0.7 0.6 1.7 0.5 2.3-0.1l8.1-8.1c0.4-0.4 0.6-0.9 0.5-1.4z"/>
					<path id="&lt;Compound Path&gt;" fill-rule="evenodd" class="s1" d="m367.3 544.1l-12.6 12.6c-2.5 2.4-5.7 3.8-9.1 3.8-3.4 0-6.7-1.4-9.1-3.8-5-5-5-13.2 0-18.2l12.6-12.6c2.5-2.4 5.7-3.8 9.1-3.8 3.5 0 6.7 1.4 9.1 3.8 5 5 5 13.2 0 18.2zm-1.2-9.1c0-2.1-0.8-4.1-2.3-5.6-1.5-1.5-3.5-2.3-5.6-2.3-2.1 0-4 0.8-5.5 2.3l-6.3 6.3 11.1 11.2 6.3-6.4c1.5-1.4 2.3-3.4 2.3-5.5z"/>
					<path id="&lt;Compound Path&gt;" fill-rule="evenodd" class="s1" d="m524.8 478v17.9c0 7.1-5.8 12.8-12.8 12.8-7.1 0-12.9-5.7-12.9-12.8v-17.9c0-7.1 5.8-12.9 12.9-12.9 7 0 12.8 5.8 12.8 12.9zm-20.7 0v8.9h15.7v-8.9c0-4.3-3.5-7.9-7.8-7.9-4.4 0-7.9 3.6-7.9 7.9z"/>
					<path id="&lt;Compound Path&gt;" fill-rule="evenodd" class="s1" d="m456.9 372.7c0 7.1-5.7 12.9-12.8 12.9h-17.9c-7.1 0-12.9-5.8-12.9-12.9 0-7 5.8-12.8 12.9-12.8h17.9c7.1 0 12.8 5.8 12.8 12.8zm-5 0c0-4.3-3.5-7.8-7.8-7.8h-9v15.7h9c4.3 0 7.8-3.5 7.8-7.9z"/>
					<path id="&lt;Compound Path&gt;" fill-rule="evenodd" class="s1" d="m721.4 408.2c-0.3 0.6-0.9 1.1-1.5 1.3l-13.4 4.2q-0.4 0.1-0.8 0.1c-1 0-2-0.7-2.3-1.8l-11.5-36.6c-0.2-0.7-0.2-1.4 0.1-1.9 0.3-0.6 0.9-1.1 1.5-1.3l4.3-1.3-2.5-7.9c-2.5 3.4-6.5 5.7-11.1 5.7-4.6 0-8.6-2.2-11.1-5.7l-2.5 7.9 4.3 1.3c0.6 0.2 1.2 0.7 1.5 1.3 0.3 0.5 0.4 1.2 0.2 1.9l-11.5 36.6c-0.4 1.1-1.4 1.8-2.4 1.8q-0.4 0-0.8-0.1l-13.4-4.2c-1.3-0.5-2.1-1.9-1.6-3.2l11.5-36.6c0.4-1.4 1.8-2.1 3.1-1.7l4.3 1.4 4.7-15c0.3-7.3 6.3-13.1 13.7-13.1 7.3 0 13.3 5.8 13.7 13l4.7 15.1 4.3-1.4c1.3-0.4 2.7 0.3 3.2 1.7l11.5 36.6c0.2 0.6 0.1 1.3-0.2 1.9zm-28.5-53.2c0-4.8-3.9-8.7-8.7-8.7-4.8 0-8.7 3.9-8.7 8.7 0 4.8 3.9 8.7 8.7 8.7 4.8 0 8.7-3.9 8.7-8.7z"/>
					<path id="&lt;Compound Path&gt;" fill-rule="evenodd" class="s1" d="m706.5 685.4q-0.4 0.2-0.8 0.2c-1 0-2-0.7-2.3-1.8l-11.5-36.7c-0.2-0.6-0.2-1.3 0.1-1.9 0.3-0.6 0.9-1 1.5-1.2l4.3-1.4-2.5-7.8c-2.5 3.4-6.5 5.7-11.1 5.7-4.6 0-8.6-2.3-11.1-5.7l-2.5 7.9 4.3 1.3c0.6 0.2 1.2 0.6 1.5 1.2 0.3 0.6 0.4 1.3 0.2 1.9l-11.5 36.7c-0.4 1.1-1.4 1.8-2.4 1.8q-0.4 0-0.8-0.2l-13.4-4.2c-1.3-0.4-2.1-1.8-1.6-3.1l11.5-36.7c0.4-1.3 1.8-2 3.1-1.6l4.3 1.3 4.7-14.9c0.3-7.3 6.3-13.1 13.7-13.1 7.3 0 13.3 5.7 13.7 13l4.7 15 4.3-1.3c1.3-0.4 2.7 0.3 3.2 1.6l11.5 36.7c0.2 0.6 0.1 1.3-0.2 1.9-0.3 0.6-0.9 1-1.5 1.2zm-13.6-58.6c0-4.8-3.9-8.7-8.7-8.7-4.8 0-8.7 3.9-8.7 8.7 0 4.8 3.9 8.7 8.7 8.7 4.8 0 8.7-3.9 8.7-8.7z"/>
					<path id="&lt;Path&gt;" class="s1" d="m895.3 564.5h-7.4v-2.6c0-1.4-1.1-2.5-2.5-2.5h-4.1v-0.4c0-1.4-1.1-2.5-2.5-2.5h-7.2c-1.4 0-2.5 1.1-2.5 2.5v5.5h-31v-5.4c0-1.4-1.1-2.5-2.5-2.5h-7.2c-1.4 0-2.5 1.1-2.5 2.5v0.3h-4.1c-1.4 0-2.5 1.1-2.5 2.5v2.6h-7.4v11.9h7.4v2.6c0 1.4 1.1 2.5 2.5 2.5h4.1v0.4c0 1.4 1.1 2.5 2.5 2.5h7.2c1.4 0 2.5-1.1 2.5-2.5v-5.5h31v5.4c0 1.4 1.1 2.5 2.5 2.5h7.2c1.4 0 2.5-1.1 2.5-2.5v-0.3h4.1c1.4 0 2.5-1.1 2.5-2.5v-2.6h7.4z"/>
					<g id="&lt;Group&gt;">
						<path id="&lt;Path&gt;" class="s1" d="m774.3 487.4l10.9 10.8c9.9-11.2 12.1-26.9 6.5-40-2 8.9-8.1 19.4-17.4 29.2z"/>
						<path id="&lt;Compound Path&gt;" fill-rule="evenodd" class="s1" d="m769.1 485.6c-9.9 9.9-20.1 15.7-28.1 17.7-4.1 1-8.5-0.2-11.6-3.2q0 0 0 0 0-0.1 0-0.1c-3-3-4.2-7.4-3.2-11.6 2-8 7.8-18.1 17.7-28q0 0 0 0 0 0 0 0c9.9-9.9 20-15.7 28-17.7 4.2-1 8.6 0.2 11.6 3.2q0 0 0 0.1 0 0 0 0c3.1 3 4.3 7.4 3.3 11.6-2 8-7.9 18.1-17.7 28zm-9.1-12.6l3.8-3.8 1.6 1.7c1 1 2.6 1 3.5 0 1-1 1-2.6 0-3.5l-1.6-1.7 3.8-3.8 1.6 1.7c1 1 2.6 1 3.5 0 1-1 1-2.6 0-3.5l-1.6-1.7 1.8-1.7c0.9-1 0.9-2.6 0-3.6-1-0.9-2.6-0.9-3.6 0l-1.7 1.8-1.7-1.7c-1-0.9-2.6-0.9-3.5 0.1-1 0.9-1 2.5 0 3.5q0 0 0 0l1.6 1.6-3.7 3.8-1.7-1.7c-1-0.9-2.5-0.9-3.5 0-1 1-1 2.6 0 3.6q0 0 0 0l1.6 1.6-3.7 3.8-1.7-1.7c-1-0.9-2.5-0.9-3.5 0-1 1-1 2.6 0 3.6q0 0 0 0l1.6 1.6-3.7 3.8-1.7-1.7c-1-0.9-2.5-0.9-3.5 0-1 1-1 2.6 0 3.6q0 0 0 0l1.6 1.6-3.7 3.8-1.7-1.7c-1-0.9-2.5-0.9-3.5 0-1 1-1 2.6 0 3.6l1.6 1.6-1.7 1.8c-1 0.9-1 2.5 0 3.5 1 1 2.5 1 3.5 0l1.8-1.8 1.6 1.7c1 0.9 2.6 0.9 3.6 0 0.9-1 0.9-2.6 0-3.6l-1.7-1.6 3.8-3.8 1.6 1.7c1 1 2.6 1 3.5 0 1-1 1-2.6 0-3.5v-0.1l-1.6-1.6 3.8-3.8 1.6 1.7c1 1 2.6 1 3.5 0 1-1 1-2.6 0-3.5v-0.1z"/>
						<path id="&lt;Path&gt;" class="s1" d="m770.8 490.9c-9.7 9.2-20.2 15.3-29.2 17.4 13.2 5.5 28.9 3.3 40.1-6.5z"/>
						<path id="&lt;Path&gt;" class="s1" d="m742.1 455.1c9.8-9.2 20.3-15.3 29.2-17.3-13.2-5.6-28.8-3.4-40.1 6.4z"/>
						<path id="&lt;Path&gt;" class="s1" d="m738.6 458.7l-10.9-10.9c-9.8 11.2-12 26.9-6.5 40.1 2.1-9 8.1-19.5 17.4-29.2z"/>
					</g>
					<path id="&lt;Compound Path&gt;" fill-rule="evenodd" class="s1" d="m605.8 622.9v48.9c0 8.3-6.7 15.1-15.1 15.1h-7.2c-8.3 0-15.1-6.8-15.1-15.1v-49.1l15.8-33.1q0.1 0 0.1-0.1 0.2-0.2 0.4-0.5 0-0.1 0.1-0.1 0.3-0.3 0.6-0.5 0.1-0.1 0.1-0.1 0.3-0.2 0.6-0.3 0.1 0 0.2 0 0.4-0.1 0.8-0.1 0.5 0 0.8 0.1 0.1 0 0.2 0 0.4 0.1 0.6 0.3 0.1 0 0.2 0.1 0.3 0.2 0.6 0.5 0 0 0.1 0.1 0.2 0.3 0.4 0.5 0 0.1 0 0.1zm-8.4-4.1l-7-13.9v13.9zm-13.5-13.9l-6.9 13.9h6.9z"/>
					<path id="&lt;Compound Path&gt;" fill-rule="evenodd" class="s1" d="m658.7 468v57.8c0 1.1-0.9 2.1-2.1 2.1h-57.7c-1.2 0-2.1-1-2.1-2.1v-57.8c0-1.1 0.9-2 2.1-2h57.7c1.2 0 2.1 0.9 2.1 2zm-13.7 11.3c0-0.5-0.2-1-0.6-1.3-9.5-8.2-23.7-8.2-33.3 0-0.4 0.3-0.6 0.8-0.6 1.3 0 0.5 0.2 1 0.5 1.3l8.1 8.2c0.7 0.6 1.7 0.7 2.4 0.1 1.1-0.8 2.3-1.4 3.6-1.7l-2.5-9.7c-0.3-1.2 0.4-2.3 1.5-2.6 1.1-0.2 2.2 0.4 2.5 1.5l2.7 10.6c1.7 0.2 3.3 0.9 4.7 1.9 0.8 0.6 1.7 0.5 2.4-0.1l8.1-8.2c0.3-0.3 0.5-0.8 0.5-1.3z"/>
					<path id="&lt;Compound Path&gt;" fill-rule="evenodd" class="s1" d="m706.5 554l-12.7 12.7c-2.4 2.4-5.6 3.7-9 3.7-3.5 0-6.7-1.3-9.1-3.7-5-5-5-13.2 0-18.2l12.6-12.6c2.4-2.5 5.7-3.8 9.1-3.8 3.4 0 6.7 1.3 9.1 3.8 5 5 5 13.1 0 18.1zm-1.2-9c0-2.1-0.9-4.1-2.3-5.6-1.5-1.5-3.5-2.3-5.6-2.3-2.1 0-4.1 0.8-5.6 2.3l-6.3 6.3 11.1 11.1 6.4-6.3c1.4-1.5 2.3-3.4 2.3-5.5z"/>
					<path id="&lt;Compound Path&gt;" fill-rule="evenodd" class="s1" d="m864 488v17.8c0 7.1-5.8 12.9-12.9 12.9-7.1 0-12.8-5.8-12.8-12.9v-17.8c0-7.1 5.7-12.9 12.8-12.9 7.1 0 12.9 5.8 12.9 12.9zm-20.7 0v8.9h15.7v-8.9c0-4.4-3.6-7.9-7.9-7.9-4.3 0-7.8 3.5-7.8 7.9z"/>
					<path id="&lt;Compound Path&gt;" fill-rule="evenodd" class="s1" d="m796.1 382.7c0 7.1-5.8 12.9-12.9 12.9h-17.8c-7.1 0-12.9-5.8-12.9-12.9 0-7.1 5.8-12.8 12.9-12.8h17.8c7.1 0 12.9 5.7 12.9 12.8zm-5 0c0-4.3-3.5-7.8-7.9-7.8h-8.9v15.7h8.9c4.4 0 7.9-3.6 7.9-7.9z"/>
					<path id="&lt;Compound Path&gt;" fill-rule="evenodd" class="s1" d="m98.2 776.5c-0.3 0.6-0.8 1.1-1.5 1.3l-13.4 4.2q-0.3 0.1-0.7 0.1c-1.1 0-2.1-0.7-2.4-1.8l-11.5-36.6c-0.2-0.7-0.1-1.4 0.2-1.9 0.3-0.6 0.8-1.1 1.4-1.3l4.3-1.3-2.4-7.9c-2.5 3.4-6.6 5.7-11.2 5.7-4.6 0-8.6-2.2-11.1-5.7l-2.5 7.9 4.3 1.3c0.7 0.2 1.2 0.7 1.5 1.3 0.3 0.5 0.4 1.2 0.2 1.9l-11.5 36.6c-0.3 1.1-1.3 1.8-2.4 1.8q-0.4 0-0.8-0.1l-13.4-4.2c-1.3-0.5-2-1.9-1.6-3.2l11.5-36.6c0.4-1.4 1.8-2.1 3.1-1.7l4.3 1.4 4.7-15c0.4-7.3 6.4-13.1 13.7-13.1 7.3 0 13.3 5.8 13.7 13l4.7 15.1 4.3-1.4c1.4-0.4 2.8 0.3 3.2 1.7l11.5 36.6c0.2 0.6 0.1 1.3-0.2 1.9zm-28.5-53.2c0-4.8-3.9-8.7-8.7-8.7-4.8 0-8.7 3.9-8.7 8.7 0 4.8 3.9 8.7 8.7 8.7 4.8 0 8.7-3.9 8.7-8.7z"/>
					<path id="&lt;Path&gt;" class="s1" d="m272.1 932.8h-7.4v-2.6c0-1.4-1.1-2.5-2.5-2.5h-4v-0.4c0-1.4-1.2-2.5-2.5-2.5h-7.3c-1.3 0-2.5 1.1-2.5 2.5v5.5h-31v-5.4c0-1.4-1.1-2.5-2.5-2.5h-7.2c-1.4 0-2.5 1.1-2.5 2.5v0.3h-4.1c-1.4 0-2.5 1.1-2.5 2.5v2.6h-7.3v11.9h7.3v2.6c0 1.4 1.1 2.5 2.5 2.5h4.1v0.4c0 1.4 1.1 2.5 2.5 2.5h7.2c1.4 0 2.5-1.1 2.5-2.5v-5.5h31v5.4c0 1.4 1.2 2.5 2.5 2.5h7.3c1.3 0 2.5-1.1 2.5-2.5v-0.3h4c1.4 0 2.5-1.1 2.5-2.5v-2.6h7.4z"/>
					<g id="&lt;Group&gt;">
						<path id="&lt;Path&gt;" class="s1" d="m147.6 823.4l10.9-10.8c-11.2-9.9-26.9-12.1-40-6.5 8.9 2 19.4 8.1 29.1 17.3z"/>
						<path id="&lt;Compound Path&gt;" fill-rule="evenodd" class="s1" d="m145.9 828.7c9.9 9.9 15.7 20 17.7 28 1 4.2-0.2 8.6-3.2 11.6q0 0 0 0.1-0.1 0-0.1 0c-3 3-7.4 4.2-11.6 3.2-8-2-18.1-7.8-28-17.7q0 0 0 0 0 0 0 0c-9.9-9.9-15.7-20.1-17.7-28.1-1-4.1 0.2-8.5 3.2-11.5q0 0 0 0 0.1-0.1 0.1-0.1c3-3 7.4-4.2 11.6-3.2 8 2 18.1 7.8 28 17.7zm-12.6 9.1l-3.8-3.8 1.7-1.6c1-1 1-2.6 0-3.6-1-0.9-2.6-0.9-3.5 0l-1.7 1.7-3.8-3.8 1.7-1.6c1-1 1-2.6 0-3.6-1-0.9-2.6-0.9-3.5 0q0 0 0 0l-1.7 1.7-1.8-1.8c-0.9-0.9-2.5-0.9-3.5 0-1 1-1 2.6 0 3.6l1.8 1.7-1.7 1.7c-0.9 1-0.9 2.5 0 3.5 1 1 2.6 1 3.6 0l1.6-1.6 3.8 3.7-1.7 1.7c-0.9 0.9-0.9 2.5 0 3.5 1 1 2.6 1 3.6 0l1.6-1.7 3.8 3.8-1.7 1.7c-0.9 0.9-0.9 2.5 0 3.5 1 1 2.6 1 3.6 0l1.6-1.7 3.8 3.8-1.7 1.7c-0.9 0.9-0.9 2.5 0 3.5 1 1 2.6 1 3.6 0l1.6-1.7 3.8 3.8-1.7 1.7c-1 0.9-0.9 2.5 0 3.5 1 1 2.6 1 3.6 0l1.6-1.7 1.7 1.8c1 1 2.6 1 3.6 0 1-1 1-2.6 0-3.5l-1.8-1.8 1.7-1.7c0.9-0.9 0.9-2.5 0-3.5-1-1-2.6-1-3.6 0l-1.6 1.7-3.8-3.8 1.7-1.6c1-1 0.9-2.6 0-3.6-1-0.9-2.6-0.9-3.6 0q0 0 0 0l-1.6 1.7-3.8-3.8 1.7-1.6c0.9-1 0.9-2.6 0-3.6-1-0.9-2.6-0.9-3.6 0q0 0 0 0z"/>
						<path id="&lt;Path&gt;" class="s1" d="m151.2 827c9.2 9.7 15.3 20.2 17.4 29.2 5.5-13.2 3.3-28.9-6.5-40.1z"/>
						<path id="&lt;Path&gt;" class="s1" d="m115.4 855.7c-9.2-9.8-15.3-20.3-17.4-29.2-5.5 13.1-3.3 28.8 6.5 40z"/>
						<path id="&lt;Path&gt;" class="s1" d="m119 859.2l-10.9 10.9c11.2 9.8 26.9 12 40 6.5-8.9-2.1-19.4-8.2-29.1-17.4z"/>
					</g>
					<path id="&lt;Compound Path&gt;" fill-rule="evenodd" class="s1" d="m54.2 1001.2v48.9c0 8.3-6.8 15.1-15.1 15.1h-7.2c-8.3 0-15.1-6.8-15.1-15.1v-49.1l15.8-33.1q0.1 0 0.1-0.1 0.1-0.3 0.4-0.5 0-0.1 0.1-0.2 0.2-0.2 0.6-0.5 0.1 0 0.1 0 0.3-0.2 0.6-0.3 0.1 0 0.2-0.1 0.4-0.1 0.8-0.1 0.4 0 0.8 0.1 0.1 0.1 0.2 0.1 0.3 0.1 0.6 0.3 0.1 0 0.2 0 0.3 0.3 0.6 0.5 0 0.1 0.1 0.2 0.2 0.2 0.4 0.5 0 0.1 0 0.1zm-8.4-4.2l-7-13.8v13.8zm-13.5-13.8l-6.9 13.8h6.9z"/>
					<path id="&lt;Path&gt;" class="s1" d="m181.6 1022.4c-0.4-0.4-1.1-0.4-1.6 0.1l-3.7 3.8 2.1-20c0-0.6-0.4-1.2-1-1.3l-6.5-0.8c-0.7-0.1-1.2 0.4-1.3 1l-1.4 10.9v-11.7c0-0.6-0.5-1.1-1.1-1.1h-6.6c-0.6 0-1.1 0.5-1.1 1.1v12.4l-1.7-11.7c-0.1-0.6-0.6-1-1.3-0.9l-6.5 0.9c-0.6 0.1-1 0.6-0.9 1.3l1.3 9.1-2.2-6.6c-0.2-0.6-0.9-0.9-1.5-0.7l-5 1.7c-0.6 0.2-0.9 0.8-0.7 1.4l2.6 7.8q0.6 1.8 0.9 3.7l3.4 28.1h5.7v-4.6c0-2.3 1.9-4.2 4.2-4.2h6.6c2.3 0 4.2 1.9 4.2 4.2v4.6h5l1.5-5.4c0.9-3.1 2.5-5.9 4.7-8.2l7.6-7.8c0.4-0.5 0.4-1.2 0-1.6z"/>
					<path id="&lt;Path&gt;" class="s1" d="m167.4 1057.7h-13.4c-3.4 0-6.2-2.7-6.2-6.1v-0.7h25.7v0.7c0 3.4-2.7 6.1-6.1 6.1z"/>
					<path id="&lt;Path&gt;" class="s1" d="m204.7 1054.9c0-0.6 0.5-1.1 1.1-1.1l5.4 0.1-15.7-12.7c-0.4-0.4-0.5-1.1-0.1-1.6l4-5.2c0.4-0.5 1.1-0.6 1.6-0.2l8.7 6.7-8.3-8.3c-0.4-0.4-0.4-1.1 0-1.6l4.6-4.6c0.5-0.4 1.2-0.4 1.6 0l8.8 8.8-7.1-9.5c-0.3-0.5-0.2-1.2 0.3-1.5l5.2-4c0.5-0.3 1.2-0.2 1.6 0.2l5.5 7.4-3.1-6.2c-0.3-0.6 0-1.2 0.5-1.5l4.8-2.4c0.5-0.2 1.2 0 1.5 0.5l3.6 7.4q0.9 1.7 2.1 3.2l17.4 22.3-4.1 4-3.2-3.2c-1.6-1.6-4.3-1.6-5.9 0l-4.6 4.6c-1.7 1.7-1.7 4.3 0 6l3.2 3.2-3.6 3.6-4.9-2.8c-2.8-1.6-5.9-2.4-9-2.5l-11-0.1c-0.6 0-1.1-0.6-1.1-1.2z"/>
					<path id="&lt;Path&gt;" class="s1" d="m239.7 1069.8l9.5-9.5c2.4-2.4 2.4-6.3 0-8.7l-0.5-0.5-18.2 18.2 0.5 0.5c2.4 2.4 6.3 2.4 8.7 0z"/>
					<g id="&lt;Group&gt;">
						<path id="&lt;Compound Path&gt;" fill-rule="evenodd" class="s1" d="m253.4 734.3c0.5 0.5 0.5 1.2 0.1 1.6l-7.6 7.9c-2.2 2.3-3.8 5.1-4.7 8.1l-1.5 5.4v0.8c0 3.4-2.7 6.1-6.1 6.1h-13.5c-3.4 0-6.1-2.7-6.1-6.1v-0.8l-3.4-28q-0.3-1.9-0.9-3.7l-2.6-7.8c-0.2-0.6 0.1-1.3 0.7-1.4l5-1.7c0.6-0.2 1.3 0.1 1.5 0.7l2.2 6.5-1.3-9.1c-0.1-0.6 0.3-1.2 0.9-1.2l6.5-1c0.6-0.1 1.2 0.4 1.3 1l1.7 11.6v-12.3c0-0.7 0.5-1.2 1.1-1.2h6.6c0.6 0 1.1 0.5 1.1 1.2v11.7l1.4-10.9c0.1-0.7 0.6-1.1 1.2-1l6.6 0.8c0.6 0.1 1 0.6 1 1.2l-2.1 20.1 3.7-3.9c0.5-0.4 1.2-0.4 1.6 0zm-18.8 23v-4.6c0-2.3-1.9-4.2-4.2-4.2h-6.5c-2.3 0-4.2 1.9-4.2 4.2v4.6z"/>
						<path id="&lt;Path&gt;" class="s1" d="m315.4 758.1l-0.5-0.5-17.4-22.3q-1.2-1.5-2.1-3.3l-3.6-7.3c-0.3-0.6-1-0.8-1.5-0.5l-4.8 2.4c-0.6 0.2-0.8 0.9-0.5 1.5l3.1 6.2-5.5-7.4c-0.4-0.5-1.1-0.6-1.6-0.2l-5.3 3.9c-0.5 0.4-0.6 1.1-0.2 1.6l7.1 9.4-8.8-8.7c-0.4-0.5-1.1-0.5-1.6 0l-4.6 4.6c-0.5 0.4-0.5 1.2 0 1.6l8.3 8.3-8.7-6.7c-0.5-0.4-1.2-0.3-1.6 0.2l-4.1 5.2c-0.3 0.5-0.3 1.2 0.2 1.5l15.6 12.7h-5.3c-0.6-0.1-1.2 0.4-1.2 1.1l-0.1 7.8c0 0.6 0.5 1.1 1.1 1.1l10.9 0.2c3.2 0.1 6.3 0.9 9.1 2.5l4.9 2.7 3.6-3.5-3.3-3.3c-1.6-1.6-1.6-4.3 0-5.9l4.7-4.6c1.6-1.7 4.3-1.7 5.9 0l3.2 3.2-14.1 14.1 0.5 0.6c2.4 2.4 6.3 2.4 8.7 0l9.5-9.5c2.4-2.4 2.4-6.3 0-8.7z"/>
					</g>
					<g id="&lt;Group&gt;">
						<path id="&lt;Compound Path&gt;" fill-rule="evenodd" class="s1" d="m586.1 747.2c0.4 0.4 0.5 1.1 0 1.6l-7.6 7.8c-2.2 2.3-3.8 5.1-4.6 8.2l-1.5 5.4v0.7c0 3.4-2.8 6.2-6.2 6.2h-13.4c-3.4 0-6.1-2.8-6.1-6.2v-0.7l-3.5-28.1q-0.2-1.9-0.8-3.7l-2.6-7.8c-0.2-0.6 0.1-1.2 0.7-1.4l5-1.7c0.6-0.2 1.2 0.1 1.4 0.7l2.2 6.6-1.3-9.1c-0.1-0.6 0.4-1.2 1-1.3l6.5-0.9c0.6-0.1 1.2 0.3 1.3 0.9l1.6 11.7v-12.4c0-0.6 0.5-1.1 1.1-1.1h6.6c0.6 0 1.1 0.5 1.1 1.1v11.7l1.4-10.9c0.1-0.6 0.7-1 1.3-1l6.5 0.9c0.6 0 1.1 0.6 1 1.2l-2 20 3.7-3.8c0.4-0.5 1.1-0.5 1.6-0.1zm-18.8 23v-4.5c0-2.3-1.9-4.2-4.2-4.2h-6.6c-2.3 0-4.1 1.9-4.1 4.2v4.5z"/>
						<path id="&lt;Path&gt;" class="s1" d="m648 770.9l-0.5-0.5-17.4-22.3q-1.2-1.5-2-3.2l-3.7-7.3c-0.3-0.6-0.9-0.8-1.5-0.6l-4.7 2.4c-0.6 0.3-0.8 1-0.5 1.5l3 6.2-5.5-7.3c-0.3-0.5-1.1-0.6-1.6-0.3l-5.2 4c-0.5 0.4-0.6 1.1-0.2 1.6l7 9.4-8.7-8.8c-0.5-0.4-1.2-0.4-1.6 0l-4.7 4.7c-0.4 0.4-0.4 1.1 0 1.6l8.3 8.3-8.7-6.8c-0.5-0.4-1.2-0.3-1.6 0.2l-4 5.2c-0.4 0.5-0.3 1.2 0.2 1.6l15.6 12.7-5.4-0.1c-0.6 0-1.1 0.5-1.1 1.1l-0.1 7.8c0 0.7 0.4 1.2 1.1 1.2l10.9 0.2c3.2 0 6.3 0.9 9.1 2.4l4.8 2.8 3.6-3.6-3.2-3.2c-1.6-1.6-1.6-4.3 0-5.9l4.6-4.7c1.7-1.6 4.3-1.6 6 0l3.2 3.3-14.2 14.1 0.6 0.5c2.4 2.4 6.2 2.4 8.6 0l9.5-9.5c2.4-2.4 2.4-6.3 0-8.7z"/>
					</g>
					<path id="&lt;Compound Path&gt;" fill-rule="evenodd" class="s1" d="m922.4 760c0.5 0.5 0.5 1.2 0 1.6l-7.6 7.9c-2.2 2.3-3.8 5.1-4.6 8.1l-1.5 5.4v0.8c0 3.4-2.8 6.1-6.2 6.1h-13.4c-3.4 0-6.1-2.7-6.1-6.1v-0.8l-3.5-28q-0.2-1.9-0.8-3.7l-2.6-7.8c-0.2-0.6 0.1-1.3 0.7-1.4l5-1.7c0.6-0.2 1.2 0.1 1.4 0.7l2.2 6.5-1.3-9.1c-0.1-0.6 0.4-1.2 1-1.2l6.5-1c0.6-0.1 1.2 0.4 1.3 1l1.6 11.6v-12.3c0-0.7 0.5-1.2 1.1-1.2h6.6c0.6 0 1.1 0.5 1.1 1.2v11.7l1.4-10.9c0.1-0.7 0.7-1.1 1.3-1l6.5 0.8c0.6 0.1 1.1 0.6 1 1.2l-2 20.1 3.7-3.9c0.4-0.4 1.1-0.4 1.6 0zm-18.8 23v-4.6c0-2.3-1.9-4.2-4.2-4.2h-6.6c-2.3 0-4.1 1.9-4.1 4.2v4.6z"/>
					<path id="&lt;Path&gt;" class="s1" d="m-19.7 756.8l-0.5-0.5-17.4-22.3q-1.2-1.5-2-3.2l-3.7-7.3c-0.2-0.6-0.9-0.8-1.5-0.5l-4.7 2.3c-0.6 0.3-0.8 1-0.5 1.5l3.1 6.2-5.6-7.3c-0.3-0.5-1.1-0.6-1.5-0.3l-5.3 4c-0.5 0.4-0.6 1.1-0.2 1.6l7 9.4-8.7-8.8c-0.5-0.4-1.2-0.4-1.6 0l-4.7 4.7c-0.4 0.4-0.4 1.1 0 1.6l8.3 8.3-8.7-6.8c-0.5-0.4-1.2-0.3-1.6 0.2l-4 5.2c-0.4 0.5-0.3 1.2 0.2 1.6l15.6 12.7-5.4-0.1c-0.6 0-1.1 0.5-1.1 1.1l-0.1 7.8c0 0.7 0.5 1.2 1.1 1.2l10.9 0.2c3.2 0 6.3 0.9 9.1 2.4l4.8 2.8 3.6-3.6-3.2-3.2c-1.6-1.6-1.6-4.3 0-5.9l4.6-4.7c1.7-1.6 4.3-1.6 6 0l3.2 3.3-14.2 14.1 0.6 0.5c2.4 2.4 6.2 2.4 8.6 0l9.5-9.5c2.4-2.4 2.4-6.3 0-8.7z"/>
					<path id="&lt;Compound Path&gt;" fill-rule="evenodd" class="s1" d="m35.5 836.3v57.8c0 1.1-0.9 2.1-2 2.1h-57.8c-1.1 0-2.1-1-2.1-2.1v-57.8c0-1.1 1-2 2.1-2h57.8c1.1 0 2 0.9 2 2zm-13.7 11.3c0-0.5-0.2-1-0.6-1.3-9.5-8.2-23.7-8.2-33.3 0-0.3 0.3-0.6 0.8-0.6 1.3 0 0.5 0.2 1 0.5 1.3l8.2 8.2c0.6 0.6 1.6 0.7 2.3 0.1 1.1-0.8 2.3-1.4 3.6-1.7l-2.5-9.7c-0.2-1.2 0.4-2.3 1.5-2.6 1.1-0.2 2.3 0.4 2.5 1.5l2.7 10.6c1.7 0.2 3.3 0.9 4.8 1.9 0.7 0.6 1.7 0.5 2.3-0.1l8.1-8.2c0.4-0.3 0.6-0.8 0.5-1.3z"/>
					<path id="&lt;Compound Path&gt;" fill-rule="evenodd" class="s1" d="m83.3 922.3l-12.6 12.7c-2.5 2.4-5.7 3.8-9.1 3.8-3.5 0-6.7-1.4-9.1-3.8-5-5-5-13.2 0-18.2l12.6-12.6c2.5-2.5 5.7-3.8 9.1-3.8 3.5 0 6.7 1.3 9.1 3.8 5 5 5 13.1 0 18.1zm-1.2-9c0-2.1-0.8-4.1-2.3-5.6-1.5-1.5-3.5-2.3-5.6-2.3-2.1 0-4.1 0.8-5.5 2.3l-6.4 6.3 11.2 11.1 6.3-6.3c1.5-1.5 2.3-3.4 2.3-5.5z"/>
					<path id="&lt;Compound Path&gt;" fill-rule="evenodd" class="s1" d="m1087.8 857.5c-0.3 0.6-0.8 1.1-1.5 1.3l-13.4 4.2q-0.3 0.1-0.7 0.1c-1.1 0-2.1-0.7-2.4-1.8l-11.5-36.6c-0.2-0.7-0.1-1.3 0.2-1.9 0.3-0.6 0.8-1.1 1.4-1.3l4.3-1.3-2.4-7.9c-2.5 3.5-6.6 5.7-11.2 5.7-4.6 0-8.6-2.2-11.1-5.7l-2.5 7.9 4.3 1.3c0.7 0.2 1.2 0.7 1.5 1.3 0.3 0.6 0.4 1.2 0.2 1.9l-11.5 36.6c-0.3 1.1-1.3 1.8-2.4 1.8q-0.4 0-0.8-0.1l-13.4-4.2c-1.3-0.5-2-1.9-1.6-3.2l11.5-36.6c0.4-1.4 1.8-2.1 3.1-1.7l4.3 1.4 4.7-15c0.4-7.3 6.4-13.1 13.7-13.1 7.3 0 13.3 5.8 13.7 13l4.7 15.1 4.3-1.4c1.4-0.4 2.8 0.3 3.2 1.7l11.5 36.6c0.2 0.7 0.1 1.3-0.2 1.9zm-28.5-53.2c0-4.8-3.9-8.7-8.7-8.7-4.8 0-8.7 3.9-8.7 8.7 0 4.8 3.9 8.7 8.7 8.7 4.8 0 8.7-3.9 8.7-8.7z"/>
					<path id="&lt;Compound Path&gt;" fill-rule="evenodd" class="s1" d="m990.4 1052.1v48.9c0 8.3-6.7 15.1-15.1 15.1h-7.2c-8.3 0-15-6.8-15-15.1v-49.1l15.7-33.1q0.1 0 0.1 0 0.2-0.3 0.4-0.6 0-0.1 0.1-0.1 0.3-0.3 0.6-0.5 0.1-0.1 0.1-0.1 0.3-0.2 0.6-0.3 0.1 0 0.2 0 0.4-0.1 0.8-0.1 0.5 0 0.8 0.1 0.1 0 0.2 0 0.4 0.1 0.6 0.3 0.1 0 0.2 0.1 0.3 0.2 0.6 0.5 0 0 0.1 0.1 0.2 0.3 0.4 0.6 0 0 0 0zm-8.4-4.1l-7-13.9v13.9zm-13.5-13.9l-6.9 13.9h6.9z"/>
					<path id="&lt;Path&gt;" class="s1" d="m969.9 837.8l-0.5-0.5-17.4-22.2q-1.2-1.6-2-3.3l-3.7-7.3c-0.2-0.6-0.9-0.8-1.5-0.5l-4.7 2.3c-0.6 0.3-0.8 1-0.5 1.5l3.1 6.2-5.6-7.3c-0.3-0.5-1.1-0.6-1.5-0.2l-5.3 3.9c-0.5 0.4-0.6 1.1-0.2 1.6l7 9.4-8.7-8.8c-0.5-0.4-1.2-0.4-1.6 0l-4.7 4.7c-0.4 0.4-0.4 1.1 0 1.6l8.3 8.3-8.7-6.8c-0.5-0.4-1.2-0.3-1.6 0.2l-4 5.2c-0.4 0.5-0.3 1.2 0.2 1.6l15.6 12.7-5.4-0.1c-0.6 0-1.1 0.5-1.1 1.1l-0.1 7.9c0 0.6 0.5 1.1 1.1 1.1l10.9 0.2c3.2 0 6.3 0.9 9.1 2.4l4.9 2.8 3.5-3.6-3.2-3.2c-1.6-1.6-1.6-4.3 0-5.9l4.6-4.7c1.7-1.6 4.3-1.6 6 0l3.2 3.3-14.1 14.1 0.5 0.5c2.4 2.4 6.2 2.4 8.6 0l9.5-9.5c2.4-2.4 2.4-6.3 0-8.7z"/>
					<path id="&lt;Compound Path&gt;" fill-rule="evenodd" class="s1" d="m1025.1 917.3v57.8c0 1.1-0.9 2.1-2 2.1h-57.8c-1.1 0-2.1-1-2.1-2.1v-57.8c0-1.1 1-2 2.1-2h57.8c1.1 0 2 0.9 2 2zm-13.7 11.3c0-0.5-0.2-1-0.6-1.3-9.5-8.2-23.7-8.2-33.3 0-0.3 0.3-0.6 0.8-0.6 1.3 0 0.5 0.2 1 0.5 1.4l8.2 8.1c0.6 0.6 1.6 0.7 2.3 0.1 1.1-0.8 2.3-1.3 3.6-1.7l-2.4-9.7c-0.3-1.1 0.3-2.3 1.4-2.5 1.1-0.3 2.3 0.3 2.6 1.4l2.6 10.6c1.7 0.2 3.3 0.9 4.8 1.9 0.7 0.6 1.7 0.5 2.3-0.1l8.1-8.1c0.4-0.4 0.6-0.9 0.5-1.4z"/>
					<path id="&lt;Compound Path&gt;" fill-rule="evenodd" class="s1" d="m1072.9 1003.4l-12.6 12.6c-2.5 2.4-5.7 3.8-9.1 3.8-3.5 0-6.7-1.4-9.1-3.8-5-5-5-13.2 0-18.2l12.6-12.6c2.5-2.4 5.7-3.8 9.1-3.8 3.5 0 6.7 1.4 9.1 3.8 5 5 5 13.1 0 18.2zm-1.2-9.1c0-2.1-0.8-4.1-2.3-5.6-1.5-1.5-3.5-2.3-5.6-2.3-2.1 0-4 0.8-5.5 2.3l-6.4 6.3 11.2 11.1 6.3-6.3c1.5-1.5 2.3-3.4 2.3-5.5z"/>
					<path id="&lt;Compound Path&gt;" fill-rule="evenodd" class="s1" d="m240.8 856.3v17.8c0 7.1-5.8 12.9-12.9 12.9-7 0-12.8-5.8-12.8-12.9v-17.8c0-7.1 5.8-12.9 12.8-12.9 7.1 0 12.9 5.8 12.9 12.9zm-20.7 0v8.9h15.7v-8.9c0-4.4-3.5-7.9-7.9-7.9-4.3 0-7.8 3.5-7.8 7.9z"/>
					<path id="&lt;Compound Path&gt;" fill-rule="evenodd" class="s1" d="m172.9 751c0 7.1-5.7 12.9-12.8 12.9h-17.9c-7.1 0-12.9-5.8-12.9-12.9 0-7.1 5.8-12.8 12.9-12.8h17.9c7.1 0 12.8 5.7 12.8 12.8zm-5 0c0-4.3-3.5-7.8-7.8-7.8h-9v15.7h9c4.3 0 7.8-3.6 7.8-7.9z"/>
					<path id="&lt;Compound Path&gt;" fill-rule="evenodd" class="s1" d="m1023.8 761.5c0 7.1-5.8 12.9-12.9 12.9h-17.9c-7 0-12.8-5.8-12.8-12.9 0-7.1 5.8-12.8 12.8-12.8h17.9c7.1 0 12.9 5.7 12.9 12.8zm-5 0c0-4.3-3.5-7.8-7.9-7.8h-8.9v15.7h8.9c4.4 0 7.9-3.5 7.9-7.9z"/>
					<path id="&lt;Compound Path&gt;" fill-rule="evenodd" class="s1" d="m418 782.2c-0.3 0.6-0.8 1.1-1.5 1.3l-13.4 4.2q-0.3 0.1-0.7 0.1c-1.1 0-2.1-0.7-2.4-1.8l-11.5-36.6c-0.2-0.6-0.2-1.3 0.2-1.9 0.3-0.6 0.8-1.1 1.4-1.3l4.3-1.3-2.4-7.9c-2.5 3.5-6.6 5.7-11.2 5.7-4.6 0-8.6-2.2-11.1-5.7l-2.5 7.9 4.3 1.3c0.7 0.2 1.2 0.7 1.5 1.3 0.3 0.6 0.4 1.3 0.2 1.9l-11.5 36.6c-0.4 1.1-1.3 1.8-2.4 1.8q-0.4 0-0.8-0.1l-13.4-4.2c-1.3-0.4-2-1.8-1.6-3.2l11.5-36.6c0.4-1.3 1.8-2.1 3.1-1.7l4.3 1.4 4.7-15c0.4-7.3 6.4-13.1 13.7-13.1 7.3 0 13.3 5.8 13.7 13l4.7 15.1 4.3-1.4c1.4-0.4 2.8 0.4 3.2 1.7l11.5 36.6c0.2 0.7 0.1 1.4-0.2 1.9zm-28.5-53.2c0-4.8-3.9-8.7-8.7-8.7-4.8 0-8.7 3.9-8.7 8.7 0 4.8 3.9 8.7 8.7 8.7 4.8 0 8.7-3.9 8.7-8.7z"/>
					<path id="&lt;Path&gt;" class="s1" d="m591.9 938.5h-7.4v-2.6c0-1.4-1.1-2.5-2.5-2.5h-4v-0.4c0-1.3-1.2-2.5-2.5-2.5h-7.3c-1.3 0-2.5 1.2-2.5 2.5v5.5h-31v-5.4c0-1.4-1.1-2.5-2.5-2.5h-7.2c-1.4 0-2.5 1.1-2.5 2.5v0.3h-4.1c-1.4 0-2.5 1.1-2.5 2.5v2.6h-7.4v11.9h7.4v2.6c0 1.4 1.1 2.5 2.5 2.5h4.1v0.4c0 1.4 1.1 2.5 2.5 2.5h7.2c1.4 0 2.5-1.1 2.5-2.5v-5.5h31v5.4c0 1.4 1.2 2.5 2.5 2.5h7.3c1.3 0 2.5-1.1 2.5-2.5v-0.3h4c1.4 0 2.5-1.1 2.5-2.5v-2.6h7.4z"/>
					<g id="&lt;Group&gt;">
						<path id="&lt;Path&gt;" class="s1" d="m475.9 844.5h15.4c-1-14.9-10.5-27.5-23.8-32.9 4.9 7.8 8 19.5 8.4 32.9z"/>
						<path id="&lt;Compound Path&gt;" fill-rule="evenodd" class="s1" d="m470.9 847c0 14-3 25.3-7.3 32.4-2.2 3.6-6.2 5.9-10.5 5.9q0 0 0 0 0 0 0 0c-4.3 0-8.3-2.3-10.5-5.9-4.3-7.1-7.3-18.4-7.3-32.4q0 0 0 0 0 0 0 0c0-14 3.1-25.3 7.3-32.3 2.2-3.7 6.2-5.9 10.4-5.9q0.1 0 0.1 0 0 0 0 0c4.3 0 8.3 2.2 10.5 5.9 4.3 7.1 7.3 18.4 7.3 32.3zm-15.3-2.5v-5.3h2.3c1.4 0 2.5-1.1 2.5-2.5 0-1.4-1.1-2.5-2.5-2.5h-2.3v-5.3h2.3c1.4 0 2.5-1.1 2.5-2.5 0-1.4-1.1-2.5-2.5-2.5h-2.3v-2.5c0-1.4-1.1-2.5-2.5-2.5-1.4 0-2.5 1.1-2.5 2.5v2.5h-2.3c-1.4 0-2.5 1.1-2.5 2.5 0 1.4 1.1 2.5 2.5 2.5q0 0 0 0h2.3v5.3h-2.3c-1.4 0-2.5 1.2-2.5 2.5 0 1.4 1.1 2.5 2.5 2.5q0 0 0 0h2.3v5.3h-2.3c-1.4 0-2.5 1.2-2.5 2.5 0 1.4 1.1 2.5 2.5 2.5q0 0 0 0h2.3v5.4h-2.3c-1.4 0-2.5 1.1-2.5 2.5 0 1.3 1.1 2.5 2.5 2.5q0 0 0 0h2.3v5.3h-2.3c-1.4 0-2.5 1.1-2.5 2.5 0 1.4 1.1 2.5 2.5 2.5q0 0 0 0h2.3v2.4c0 1.4 1.1 2.5 2.5 2.5 1.4 0 2.5-1.1 2.5-2.5v-2.4h2.3c1.4 0 2.5-1.2 2.5-2.5 0-1.4-1.1-2.5-2.5-2.5h-2.3v-5.3l2.3-0.1c1.4 0 2.5-1.1 2.5-2.4 0-1.4-1.1-2.5-2.5-2.5h-2.3v-5.4h2.3c1.4 0 2.5-1.1 2.5-2.5 0-1.4-1.1-2.5-2.5-2.5z"/>
						<path id="&lt;Path&gt;" class="s1" d="m475.9 849.5c-0.4 13.5-3.5 25.2-8.4 33 13.3-5.5 22.8-18.1 23.8-33z"/>
						<path id="&lt;Path&gt;" class="s1" d="m430.3 844.5c0.4-13.4 3.5-25.1 8.4-32.9-13.3 5.4-22.8 18-23.8 32.9z"/>
						<path id="&lt;Path&gt;" class="s1" d="m430.3 849.5h-15.4c1 14.9 10.5 27.5 23.8 33-4.9-7.8-8-19.5-8.4-33z"/>
					</g>
					<path id="&lt;Compound Path&gt;" fill-rule="evenodd" class="s1" d="m374 1006.9v48.9c0 8.3-6.8 15.1-15.1 15.1h-7.2c-8.3 0-15.1-6.8-15.1-15.1v-49.1l15.8-33.1q0.1 0 0.1-0.1 0.1-0.2 0.4-0.5 0-0.1 0.1-0.1 0.2-0.3 0.6-0.5 0.1-0.1 0.1-0.1 0.3-0.2 0.6-0.3 0.1 0 0.2 0 0.4-0.1 0.8-0.1 0.4 0 0.8 0.1 0.1 0 0.2 0 0.3 0.1 0.6 0.3 0.1 0 0.2 0.1 0.3 0.2 0.6 0.5 0 0 0.1 0.1 0.2 0.3 0.4 0.5 0 0.1 0 0.1zm-8.4-4.1l-7-13.9v13.9zm-13.5-13.9l-6.9 13.9h6.9z"/>
					<path id="&lt;Path&gt;" class="s1" d="m501.4 1028.2c-0.4-0.5-1.1-0.5-1.6 0l-3.7 3.8 2.1-20c0-0.6-0.4-1.1-1-1.2l-6.5-0.9c-0.7 0-1.2 0.4-1.3 1l-1.4 11v-11.8c0-0.6-0.5-1.1-1.1-1.1h-6.6c-0.6 0-1.1 0.5-1.1 1.1v12.4l-1.7-11.7c-0.1-0.6-0.6-1-1.3-0.9l-6.5 0.9c-0.6 0.1-1 0.7-0.9 1.3l1.3 9.1-2.2-6.6c-0.2-0.6-0.9-0.9-1.5-0.7l-5 1.7c-0.6 0.2-0.9 0.8-0.7 1.4l2.6 7.8q0.6 1.8 0.9 3.8l3.4 28h5.7v-4.6c0-2.3 1.9-4.2 4.2-4.2h6.6c2.3 0 4.2 1.9 4.2 4.2v4.6h5l1.5-5.4c0.9-3.1 2.5-5.9 4.7-8.2l7.6-7.8c0.4-0.5 0.4-1.2 0-1.6z"/>
					<path id="&lt;Path&gt;" class="s1" d="m487.2 1063.5h-13.5c-3.3 0-6.1-2.8-6.1-6.2v-0.7h25.7v0.7c0 3.4-2.7 6.2-6.1 6.2z"/>
					<path id="&lt;Path&gt;" class="s1" d="m524.4 1060.6c0.1-0.6 0.6-1.1 1.2-1.1l5.3 0.1-15.6-12.7c-0.4-0.4-0.5-1.1-0.1-1.6l4-5.2c0.4-0.5 1.1-0.6 1.6-0.2l8.7 6.8-8.3-8.3c-0.4-0.5-0.4-1.2 0-1.6l4.6-4.7c0.5-0.4 1.2-0.4 1.6 0l8.8 8.8-7.1-9.4c-0.3-0.5-0.2-1.2 0.3-1.6l5.2-4c0.5-0.3 1.2-0.2 1.6 0.3l5.5 7.3-3.1-6.2c-0.3-0.5 0-1.2 0.5-1.5l4.8-2.3c0.5-0.3 1.2-0.1 1.5 0.5l3.6 7.3q0.9 1.7 2.1 3.3l17.4 22.2-4.1 4.1-3.2-3.3c-1.6-1.6-4.3-1.6-5.9 0l-4.6 4.7c-1.7 1.6-1.7 4.3 0 5.9l3.2 3.2-3.6 3.6-4.9-2.8c-2.8-1.5-5.9-2.4-9.1-2.4l-10.9-0.2c-0.6 0-1.1-0.5-1.1-1.2z"/>
					<path id="&lt;Path&gt;" class="s1" d="m559.5 1075.5l9.5-9.5c2.4-2.4 2.4-6.3 0-8.7l-0.5-0.5-18.2 18.2 0.5 0.5c2.4 2.4 6.3 2.4 8.7 0z"/>
					<path id="&lt;Compound Path&gt;" fill-rule="evenodd" class="s1" d="m355.3 842v57.8c0 1.2-0.9 2.1-2 2.1h-57.8c-1.1 0-2.1-0.9-2.1-2.1v-57.8c0-1.1 1-2 2.1-2h57.8c1.1 0 2 0.9 2 2zm-13.7 11.3c0-0.5-0.2-0.9-0.6-1.3-9.5-8.2-23.7-8.2-33.3 0-0.3 0.4-0.6 0.8-0.6 1.3 0 0.5 0.2 1 0.5 1.4l8.2 8.1c0.6 0.6 1.6 0.7 2.3 0.1 1.1-0.8 2.3-1.3 3.6-1.7l-2.5-9.7c-0.2-1.1 0.4-2.3 1.5-2.5 1.1-0.3 2.3 0.4 2.5 1.5l2.7 10.5c1.7 0.2 3.3 0.9 4.8 1.9 0.7 0.6 1.7 0.5 2.3-0.1l8.1-8.1c0.4-0.4 0.6-0.9 0.5-1.4z"/>
					<path id="&lt;Compound Path&gt;" fill-rule="evenodd" class="s1" d="m403.1 928.1l-12.6 12.6c-2.5 2.4-5.7 3.8-9.1 3.8-3.5 0-6.7-1.4-9.1-3.8-5-5-5-13.2 0-18.2l12.6-12.6c2.5-2.4 5.7-3.8 9.1-3.8 3.5 0 6.7 1.4 9.1 3.8 5 5 5 13.2 0 18.2zm-1.2-9.1c0-2.1-0.8-4.1-2.3-5.6-1.5-1.5-3.5-2.3-5.6-2.3-2.1 0-4.1 0.8-5.5 2.3l-6.4 6.3 11.2 11.2 6.3-6.4c1.5-1.4 2.3-3.4 2.3-5.5z"/>
					<path id="&lt;Compound Path&gt;" fill-rule="evenodd" class="s1" d="m560.6 862v17.9c0 7.1-5.8 12.8-12.9 12.8-7 0-12.8-5.7-12.8-12.8v-17.9c0-7.1 5.8-12.9 12.8-12.9 7.1 0 12.9 5.8 12.9 12.9zm-20.7 0v8.9h15.7v-8.9c0-4.3-3.5-7.9-7.9-7.9-4.3 0-7.8 3.6-7.8 7.9z"/>
					<path id="&lt;Compound Path&gt;" fill-rule="evenodd" class="s1" d="m492.7 756.7c0 7.1-5.7 12.9-12.8 12.9h-17.9c-7.1 0-12.9-5.8-12.9-12.9 0-7 5.8-12.8 12.9-12.8h17.9c7.1 0 12.8 5.8 12.8 12.8zm-5 0c0-4.3-3.5-7.8-7.8-7.8h-9v15.7h9c4.3 0 7.8-3.5 7.8-7.9z"/>
					<path id="&lt;Compound Path&gt;" fill-rule="evenodd" class="s1" d="m757.2 792.2c-0.3 0.6-0.9 1.1-1.5 1.3l-13.4 4.2q-0.4 0.1-0.8 0.1c-1 0-2-0.7-2.4-1.8l-11.4-36.6c-0.2-0.7-0.2-1.4 0.1-1.9 0.3-0.6 0.9-1.1 1.5-1.3l4.3-1.3-2.5-7.9c-2.5 3.4-6.5 5.7-11.1 5.7-4.6 0-8.6-2.2-11.1-5.7l-2.5 7.9 4.3 1.3c0.6 0.2 1.2 0.7 1.5 1.3 0.3 0.5 0.3 1.2 0.1 1.9l-11.5 36.6c-0.3 1.1-1.3 1.8-2.3 1.8q-0.4 0-0.8-0.1l-13.4-4.2c-1.3-0.5-2.1-1.9-1.6-3.2l11.4-36.6c0.5-1.4 1.9-2.1 3.2-1.7l4.3 1.4 4.7-15c0.3-7.3 6.3-13.1 13.7-13.1 7.3 0 13.3 5.8 13.7 13l4.7 15.1 4.3-1.4c1.3-0.4 2.7 0.3 3.1 1.7l11.5 36.6c0.2 0.6 0.2 1.3-0.1 1.9zm-28.5-53.2c0-4.8-3.9-8.7-8.7-8.7-4.8 0-8.7 3.9-8.7 8.7 0 4.8 3.9 8.7 8.7 8.7 4.8 0 8.7-3.9 8.7-8.7z"/>
					<path id="&lt;Compound Path&gt;" fill-rule="evenodd" class="s1" d="m757.2 1064c-0.3 0.6-0.9 1-1.5 1.2l-13.4 4.2q-0.4 0.2-0.8 0.2c-1 0-2-0.7-2.4-1.8l-11.4-36.7c-0.2-0.6-0.2-1.3 0.1-1.9 0.3-0.6 0.9-1 1.5-1.2l4.3-1.4-2.5-7.8c-2.5 3.4-6.5 5.7-11.1 5.7-4.6 0-8.6-2.3-11.1-5.7l-2.5 7.9 4.3 1.3c0.6 0.2 1.2 0.6 1.5 1.2 0.3 0.6 0.3 1.3 0.1 1.9l-11.5 36.7c-0.3 1.1-1.3 1.8-2.3 1.8q-0.4 0-0.8-0.2l-13.4-4.2c-1.3-0.4-2.1-1.8-1.6-3.1l11.4-36.7c0.5-1.3 1.9-2 3.2-1.6l4.3 1.3 4.7-14.9c0.3-7.3 6.3-13.1 13.7-13.1 7.3 0 13.3 5.7 13.7 13l4.7 15 4.3-1.3c1.3-0.4 2.7 0.3 3.1 1.6l11.5 36.7c0.2 0.6 0.2 1.3-0.1 1.9zm-28.5-53.2c0-4.8-3.9-8.7-8.7-8.7-4.8 0-8.7 3.9-8.7 8.7 0 4.8 3.9 8.7 8.7 8.7 4.8 0 8.7-3.9 8.7-8.7z"/>
					<path id="&lt;Path&gt;" class="s1" d="m931.1 948.5h-7.4v-2.6c0-1.4-1.1-2.5-2.5-2.5h-4.1v-0.4c0-1.4-1.1-2.5-2.5-2.5h-7.2c-1.4 0-2.5 1.1-2.5 2.5v5.5h-31v-5.4c0-1.4-1.1-2.5-2.5-2.5h-7.3c-1.3 0-2.4 1.1-2.4 2.5v0.3h-4.1c-1.4 0-2.5 1.1-2.5 2.5v2.6h-7.4v11.9h7.4v2.6c0 1.4 1.1 2.5 2.5 2.5h4.1v0.4c0 1.4 1.1 2.5 2.4 2.5h7.3c1.4 0 2.5-1.1 2.5-2.5v-5.5h31v5.4c0 1.4 1.1 2.5 2.5 2.5h7.2c1.4 0 2.5-1.1 2.5-2.5v-0.3h4.1c1.4 0 2.5-1.1 2.5-2.5v-2.6h7.4z"/>
					<g id="&lt;Group&gt;">
						<path id="&lt;Path&gt;" class="s1" d="m810.1 871.4l10.9 10.8c9.9-11.2 12-26.9 6.5-40-2.1 8.9-8.1 19.4-17.4 29.2z"/>
						<path id="&lt;Compound Path&gt;" fill-rule="evenodd" class="s1" d="m804.9 869.6c-9.9 9.9-20.1 15.7-28.1 17.7-4.1 1-8.5-0.2-11.6-3.2q0 0 0 0 0-0.1 0-0.1c-3-3-4.3-7.4-3.2-11.6 2-8 7.8-18.1 17.6-28q0.1 0 0.1 0 0 0 0 0c9.8-9.9 20-15.7 28-17.7 4.2-1 8.5 0.2 11.6 3.2q0 0 0 0.1 0 0 0 0c3.1 3 4.3 7.4 3.2 11.6-1.9 8-7.8 18.1-17.6 28zm-9.1-12.6l3.8-3.8 1.6 1.7c1 1 2.6 1 3.5 0 1-1 1-2.6 0-3.5q0 0 0 0l-1.6-1.7 3.7-3.8 1.7 1.7c1 1 2.6 1 3.5 0 1-1 1-2.6 0-3.5q0 0 0 0l-1.6-1.7 1.7-1.7c1-1 1-2.6 0-3.6-0.9-0.9-2.5-0.9-3.5 0l-1.8 1.8-1.6-1.7c-1-0.9-2.6-0.9-3.5 0.1-1 0.9-1 2.5 0 3.5l1.6 1.6-3.8 3.8-1.6-1.7c-1-0.9-2.6-0.9-3.5 0-1 1-1 2.6 0 3.6l1.6 1.6-3.7 3.8-1.7-1.7c-1-0.9-2.5-0.9-3.5 0-1 1-1 2.6 0 3.6l1.6 1.6-3.7 3.8-1.7-1.7c-1-0.9-2.5-0.9-3.5 0-1 1-1 2.6 0 3.6l1.6 1.6-3.7 3.8-1.7-1.7c-1-0.9-2.5-0.9-3.5 0-1 1-1 2.6 0 3.6l1.6 1.6-1.7 1.8c-1 0.9-1 2.5 0 3.5 1 1 2.5 1 3.5 0l1.8-1.8 1.6 1.7c1 0.9 2.6 0.9 3.5 0 1-1 1-2.6 0-3.6l-1.6-1.6 3.8-3.8 1.6 1.7c1 1 2.6 1 3.5 0 1-1 1-2.6 0-3.5q0 0 0-0.1l-1.6-1.6 3.8-3.8 1.6 1.7c1 1 2.6 1 3.5 0 1-1 1-2.6 0-3.5q0-0.1 0-0.1z"/>
						<path id="&lt;Path&gt;" class="s1" d="m806.6 874.9c-9.7 9.2-20.3 15.3-29.2 17.4 13.2 5.5 28.9 3.3 40.1-6.5z"/>
						<path id="&lt;Path&gt;" class="s1" d="m777.9 839.1c9.8-9.2 20.3-15.3 29.2-17.3-13.2-5.6-28.8-3.4-40.1 6.4z"/>
						<path id="&lt;Path&gt;" class="s1" d="m774.4 842.7l-10.9-10.9c-9.9 11.2-12 26.9-6.5 40.1 2.1-9 8.1-19.5 17.4-29.2z"/>
					</g>
					<path id="&lt;Compound Path&gt;" fill-rule="evenodd" class="s1" d="m641.6 1006.9v48.9c0 8.3-6.8 15.1-15.1 15.1h-7.2c-8.3 0-15.1-6.8-15.1-15.1v-49.1l15.8-33.1q0 0 0.1-0.1 0.1-0.2 0.4-0.5 0-0.1 0.1-0.1 0.2-0.3 0.6-0.5 0-0.1 0.1-0.1 0.3-0.2 0.6-0.3 0.1 0 0.2 0 0.4-0.1 0.8-0.1 0.4 0 0.8 0.1 0.1 0 0.2 0 0.3 0.1 0.6 0.3 0.1 0 0.2 0.1 0.3 0.2 0.6 0.5 0 0 0.1 0.1 0.2 0.3 0.4 0.5 0 0.1 0 0.1zm-8.4-4.1l-7-13.9v13.9zm-13.5-13.9l-7 13.9h7z"/>
					<path id="&lt;Path&gt;" class="s1" d="m840.6 1038.1c-0.5-0.4-1.2-0.4-1.6 0.1l-3.7 3.8 2-20c0.1-0.6-0.3-1.2-0.9-1.3l-6.6-0.8c-0.6-0.1-1.2 0.4-1.2 1l-1.4 10.9v-11.7c0-0.6-0.5-1.1-1.2-1.1h-6.5c-0.7 0-1.2 0.5-1.2 1.1v12.4l-1.6-11.7c-0.1-0.6-0.7-1-1.3-0.9l-6.5 0.9c-0.6 0.1-1 0.6-1 1.3l1.3 9.1-2.2-6.6c-0.2-0.6-0.8-0.9-1.4-0.7l-5 1.7c-0.6 0.2-0.9 0.8-0.7 1.4l2.6 7.8q0.6 1.8 0.8 3.7l3.5 28.1h5.7v-4.6c0-2.3 1.9-4.2 4.2-4.2h6.5c2.3 0 4.2 1.9 4.2 4.2v4.6h5.1l1.5-5.4c0.8-3.1 2.4-5.9 4.7-8.2l7.5-7.8c0.5-0.5 0.5-1.2 0-1.6z"/>
					<path id="&lt;Path&gt;" class="s1" d="m826.3 1073.4h-13.4c-3.4 0-6.1-2.7-6.1-6.1v-0.7h25.7v0.7c0 3.4-2.8 6.1-6.2 6.1z"/>
					<path id="&lt;Path&gt;" class="s1" d="m863.6 1070.6c0-0.6 0.5-1.1 1.2-1.1l5.3 0.1-15.6-12.7c-0.5-0.4-0.6-1.1-0.2-1.6l4.1-5.2c0.3-0.5 1-0.6 1.5-0.2l8.8 6.7-8.3-8.3c-0.5-0.4-0.5-1.1 0-1.6l4.6-4.6c0.4-0.4 1.2-0.4 1.6 0l8.8 8.8-7.1-9.5c-0.4-0.5-0.3-1.2 0.2-1.5l5.3-4c0.5-0.3 1.2-0.2 1.5 0.2l5.6 7.4-3.1-6.2c-0.3-0.6-0.1-1.2 0.5-1.5l4.7-2.4c0.6-0.2 1.3 0 1.5 0.5l3.7 7.4q0.9 1.7 2 3.2l17.4 22.3-4 4-3.2-3.2c-1.7-1.6-4.3-1.6-6 0l-4.6 4.6c-1.6 1.7-1.6 4.3 0 6l3.2 3.2-3.5 3.6-4.9-2.8c-2.8-1.6-5.9-2.4-9.1-2.5l-10.9-0.1c-0.6 0-1.1-0.6-1.1-1.2z"/>
					<path id="&lt;Path&gt;" class="s1" d="m898.7 1085.5l9.5-9.5c2.4-2.4 2.4-6.3 0-8.7l-0.6-0.5-18.1 18.2 0.5 0.5c2.4 2.4 6.3 2.4 8.7 0z"/>
					<path id="&lt;Compound Path&gt;" fill-rule="evenodd" class="s1" d="m694.5 852v57.8c0 1.1-0.9 2.1-2.1 2.1h-57.7c-1.2 0-2.1-1-2.1-2.1v-57.8c0-1.1 0.9-2 2.1-2h57.7c1.2 0 2.1 0.9 2.1 2zm-13.7 11.3c0-0.5-0.2-1-0.6-1.3-9.6-8.2-23.8-8.2-33.3 0-0.4 0.3-0.6 0.8-0.6 1.3 0 0.5 0.2 1 0.5 1.3l8.1 8.2c0.6 0.6 1.6 0.7 2.4 0.1 1.1-0.8 2.3-1.4 3.6-1.7l-2.5-9.7c-0.3-1.2 0.4-2.3 1.5-2.6 1.1-0.2 2.2 0.4 2.5 1.5l2.7 10.6c1.7 0.2 3.3 0.9 4.7 1.9 0.7 0.6 1.7 0.5 2.4-0.1l8.1-8.2c0.3-0.3 0.5-0.8 0.5-1.3z"/>
					<path id="&lt;Compound Path&gt;" fill-rule="evenodd" class="s1" d="m742.3 938l-12.7 12.7c-2.4 2.4-5.6 3.7-9.1 3.7-3.4 0-6.6-1.3-9-3.7-5.1-5-5.1-13.2 0-18.2l12.6-12.6c2.4-2.5 5.7-3.8 9.1-3.8 3.4 0 6.6 1.3 9.1 3.8 5 5 5 13.1 0 18.1zm-1.3-9c0-2.1-0.8-4.1-2.3-5.6-1.4-1.5-3.4-2.3-5.5-2.3-2.1 0-4.1 0.8-5.6 2.3l-6.3 6.3 11.1 11.1 6.3-6.3c1.5-1.5 2.3-3.4 2.3-5.5z"/>
					<path id="&lt;Compound Path&gt;" fill-rule="evenodd" class="s1" d="m899.8 872v17.8c0 7.1-5.8 12.9-12.9 12.9-7.1 0-12.8-5.8-12.8-12.9v-17.8c0-7.1 5.7-12.9 12.8-12.9 7.1 0 12.9 5.8 12.9 12.9zm-20.8 0v8.9h15.8v-8.9c0-4.4-3.6-7.9-7.9-7.9-4.3 0-7.9 3.5-7.9 7.9z"/>
					<path id="&lt;Compound Path&gt;" fill-rule="evenodd" class="s1" d="m831.9 766.7c0 7.1-5.8 12.9-12.9 12.9h-17.9c-7 0-12.8-5.8-12.8-12.9 0-7.1 5.8-12.8 12.8-12.8h17.9c7.1 0 12.9 5.7 12.9 12.8zm-5 0c0-4.3-3.5-7.8-7.9-7.8h-8.9v15.7h8.9c4.4 0 7.9-3.6 7.9-7.9z"/>
					<path id="&lt;Path&gt;" class="s1" d="m868.5 627.1v3c-4.2 0.4-7.5 4-7.5 8.3v50.2c0 18.6-15.2 33.7-33.8 33.7-18.6 0-33.7-15.1-33.7-33.7v-50.2c0-4.6-3.7-8.2-8.2-8.3v-3h-31.3v12h31.3v-3c1.2 0.1 2.2 1.1 2.2 2.3v50.2c0 21.9 17.8 39.7 39.7 39.7 21.9 0 39.8-17.8 39.8-39.7v-50.2c0-1 0.6-1.9 1.5-2.2v2.9h33.3v-12z"/>
					<path id="&lt;Path&gt;" class="s1" d="m276.9 272.7v3c-4.2 0.4-7.5 4-7.5 8.3v50.1c0 18.6-15.2 33.8-33.8 33.8-18.6 0-33.7-15.2-33.7-33.8v-50.1c0-4.6-3.7-8.2-8.2-8.3v-3h-31.3v12h31.3v-3c1.2 0.1 2.2 1.1 2.2 2.3v50.1c0 22 17.8 39.8 39.7 39.8 21.9 0 39.8-17.8 39.8-39.8v-50.1c0-1 0.6-1.9 1.5-2.2v2.9h33.3v-12z"/>
					<path id="&lt;Path&gt;" class="s1" d="m220.4 144.3c-4.7 4.7-6.2 11.4-4.6 17.5l-34.4 34.4c-6-1.7-12.8-0.1-17.5 4.6-7.1 7.1-7.1 18.5 0 25.6 7 7.1 18.5 7.1 25.6 0 4.7-4.7 6.3-11.5 4.6-17.5l34.4-34.4c6.1 1.6 12.8 0.1 17.5-4.7 7.1-7 7.1-18.5 0-25.5-7-7.1-18.5-7.1-25.6 0z"/>
					<path id="&lt;Path&gt;" class="s1" d="m118.1 533.3c-4.7 4.8-6.3 11.5-4.6 17.5l-34.4 34.4c-6.1-1.6-12.8-0.1-17.5 4.7-7.1 7.1-7.1 18.5 0 25.6 7 7 18.5 7.1 25.6 0 4.7-4.8 6.2-11.5 4.6-17.5l34.4-34.4c6.1 1.6 12.8 0.1 17.5-4.7 7.1-7.1 7.1-18.5 0-25.6-7-7-18.5-7-25.6 0z"/>
					<path id="&lt;Path&gt;" class="s1" d="m858.8 177.9c-4.7 4.8-6.3 11.5-4.7 17.6l-34.3 34.3c-6.1-1.6-12.8 0-17.6 4.7-7 7.1-7 18.5 0 25.6 7.1 7.1 18.6 7.1 25.6 0 4.8-4.8 6.3-11.5 4.7-17.5l34.4-34.4c6 1.6 12.7 0.1 17.5-4.7 7.1-7 7.1-18.5 0-25.6-7.1-7-18.5-7-25.6 0z"/>
					<path id="&lt;Path&gt;" class="s1" d="m786.8 956c-4.7 4.7-6.3 11.5-4.6 17.5l-34.4 34.4c-6.1-1.6-12.8-0.1-17.6 4.7-7 7-7 18.5 0 25.5 7.1 7.1 18.6 7.1 25.6 0 4.8-4.7 6.3-11.4 4.7-17.5l34.4-34.4c6 1.7 12.8 0.1 17.5-4.6 7.1-7.1 7.1-18.5 0-25.6-7.1-7.1-18.5-7.1-25.6 0z"/>
				</g>
			</g>
		</g>
	</g>
</svg>